<svg preserveAspectRatio="none" width="100%" height="100%" overflow="visible" style="display: block;" viewBox="0 0 17.5 21.5" fill="none" xmlns="http://www.w3.org/2000/svg">
<g id="Group">
<path id="Vector" d="M8.75 11.75C10.4069 11.75 11.75 10.4069 11.75 8.75C11.75 7.09315 10.4069 5.75 8.75 5.75C7.09315 5.75 5.75 7.09315 5.75 8.75C5.75 10.4069 7.09315 11.75 8.75 11.75Z" stroke="var(--stroke-0, white)" stroke-width="1.5" stroke-linecap="round" stroke-linejoin="round"/>
<path id="Vector_2" d="M8.75 0.75C6.62827 0.75 4.59344 1.59285 3.09315 3.09315C1.59285 4.59344 0.75 6.62827 0.75 8.75C0.75 10.642 1.152 11.88 2.25 13.25L8.75 20.75L15.25 13.25C16.348 11.88 16.75 10.642 16.75 8.75C16.75 6.62827 15.9071 4.59344 14.4069 3.09315C12.9066 1.59285 10.8717 0.75 8.75 0.75Z" stroke="var(--stroke-0, white)" stroke-width="1.5" stroke-linecap="round" stroke-linejoin="round"/>
</g>
</svg>
