<svg preserveAspectRatio="none" width="100%" height="100%" overflow="visible" style="display: block;" viewBox="0 0 19.5002 15.5" fill="none" xmlns="http://www.w3.org/2000/svg">
<g id="Group">
<path id="Vector" d="M0.75008 2.75C0.75008 2.21957 0.960793 1.71086 1.33587 1.33579C1.71094 0.960714 2.21965 0.75 2.75008 0.75H16.7501C17.2805 0.75 17.7892 0.960714 18.1643 1.33579C18.5394 1.71086 18.7501 2.21957 18.7501 2.75V12.75C18.7501 13.2804 18.5394 13.7891 18.1643 14.1642C17.7892 14.5393 17.2805 14.75 16.7501 14.75H2.75008C2.21965 14.75 1.71094 14.5393 1.33587 14.1642C0.960793 13.7891 0.75008 13.2804 0.75008 12.75V2.75Z" stroke="var(--stroke-0, white)" stroke-width="1.5" stroke-linecap="round" stroke-linejoin="round"/>
<path id="Vector_2" d="M0.75008 2.75L9.75008 8.75L18.7501 2.75" stroke="var(--stroke-0, white)" stroke-width="1.5" stroke-linecap="round" stroke-linejoin="round"/>
</g>
</svg>
