<svg preserveAspectRatio="none" width="100%" height="100%" overflow="visible" style="display: block;" viewBox="0 0 71.1992 71.1992" fill="none" xmlns="http://www.w3.org/2000/svg">
<g id="Laag_1-2">
<path id="Vector" d="M35.5996 71.1992C55.2607 71.1992 71.1992 55.2607 71.1992 35.5996C71.1992 15.9385 55.2607 0 35.5996 0C15.9385 0 0 15.9385 0 35.5996C0 55.2607 15.9385 71.1992 35.5996 71.1992Z" fill="var(--fill-0, #51C2CC)"/>
<path id="Vector_2" d="M49.8631 2.96786C49.3168 3.08599 48.7704 3.26317 48.2536 3.48466C47.161 3.95715 46.1422 4.5773 45.2267 5.34511C44.326 6.09815 43.5139 6.96931 42.8347 7.92907C42.1555 8.88883 41.6535 9.87812 41.3582 10.8822C41.2105 11.3399 41.0628 11.8124 40.9447 12.2849C40.7971 12.8755 40.6937 13.4661 40.6494 14.0715C40.5756 14.7803 40.5165 15.6367 40.4575 16.6555C40.4132 17.6743 40.3689 18.9737 40.3393 20.5683C40.3098 22.163 40.295 24.0973 40.2655 26.3712C40.236 28.6451 40.2212 31.3619 40.2212 34.4922C40.2212 39.4091 40.2212 43.3367 40.1769 46.2898C40.1474 49.2429 40.1031 51.6202 40.0293 53.392C39.9554 55.1639 39.8225 56.5371 39.6454 57.5264C39.4682 58.5452 39.2172 59.5345 38.9218 60.5238C38.3608 62.2366 37.2829 63.7722 35.6587 65.1158C34.0345 66.4595 32.1002 67.1239 29.8263 67.1239C28.2612 67.1239 26.9027 66.7843 25.7658 66.1051C24.6288 65.4259 23.6839 64.4809 22.916 63.2997C22.163 62.1184 21.6019 60.701 21.2475 59.0472C20.8932 57.4082 20.716 55.5921 20.716 53.6283C20.716 51.9302 20.9375 50.2322 21.3952 48.5932C21.8529 46.9543 22.4878 45.4777 23.2852 44.1636C24.0973 42.8495 25.0866 41.7568 26.2383 40.9004C27.4048 40.044 28.6598 39.542 30.033 39.3796C31.0961 39.2319 31.6277 38.9957 31.6277 38.7004C31.6277 38.3903 31.3914 38.1245 30.9042 37.8587C30.3431 37.5782 29.7525 37.3272 29.1619 37.1352C28.4383 36.899 27.6853 36.7218 26.9323 36.6037C26.2088 36.4855 25.4705 36.4265 24.7322 36.4117C22.3107 36.4117 20.1401 36.8694 18.2502 37.7701C16.3602 38.6856 14.7655 39.8668 13.4661 41.3286C12.1963 42.7756 11.207 44.4441 10.5426 46.2603C9.87812 48.0765 9.55327 49.8778 9.55327 51.6349C9.55327 53.6135 9.99624 55.7102 10.8822 57.9693C11.7681 60.2137 13.1118 62.3104 14.8984 64.2594C15.1789 64.5695 15.4742 64.8648 15.7843 65.1601C6.27533 58.811 0 47.9436 0 35.5996C0 15.932 15.932 0 35.5996 0C40.5165 0 45.3744 1.00405 49.8631 2.96786Z" fill="var(--fill-0, white)"/>
<path id="Vector_3" d="M71.1991 35.5994C71.1991 55.2523 55.2672 71.199 35.5995 71.199C34.3592 71.199 33.1337 71.14 31.8934 71.0071C34.4626 70.9333 36.8546 70.5051 39.0842 69.693C41.4614 68.8366 43.6615 67.5372 45.5662 65.8687C47.4562 64.2002 49.0361 62.1773 50.306 59.8001C51.5758 57.4228 52.4322 54.7503 52.8899 51.7676C53.0376 50.7045 53.1705 49.0213 53.2738 46.7178C53.3772 44.4144 53.4215 41.9043 53.4215 39.1727C53.4215 37.1498 53.3772 35.1122 53.3034 33.0745C53.2295 31.0221 53.1557 29.0731 53.0819 27.1979C53.0081 25.3226 52.949 23.5655 52.8899 21.9266C52.8456 20.2876 52.8161 18.8111 52.8161 17.4969C52.8161 14.47 52.9342 12.0189 53.1557 10.1437C53.3772 8.26849 53.7316 6.83624 54.1745 5.81742C54.2484 5.655 54.3222 5.50734 54.3812 5.37445C64.4808 11.6646 71.1991 22.8568 71.1991 35.6142V35.5994Z" fill="var(--fill-0, white)"/>
</g>
</svg>
