<svg preserveAspectRatio="none" width="100%" height="100%" overflow="visible" style="display: block;" viewBox="0 0 24 24" fill="none" xmlns="http://www.w3.org/2000/svg">
<g id="Social icons">
<path id="Vector" fill-rule="evenodd" clip-rule="evenodd" d="M20.4507 20.4507H16.8933V14.88C16.8933 13.5533 16.8707 11.844 15.044 11.844C13.1907 11.844 12.9093 13.292 12.9093 14.7867V20.4507H9.352V8.99733H12.764V10.5627H12.8133C13.288 9.66267 14.4493 8.71333 16.1813 8.71333C19.7853 8.71333 20.452 11.084 20.452 14.1693V20.4507H20.4507ZM5.34 7.43333C5.06895 7.4336 4.80051 7.38047 4.54999 7.27699C4.29947 7.1735 4.07179 7.02169 3.87995 6.83022C3.6881 6.63874 3.53585 6.41136 3.43188 6.16104C3.32791 5.91072 3.27426 5.64238 3.274 5.37133C3.27374 5.10029 3.32686 4.83184 3.43035 4.58132C3.53383 4.33081 3.68564 4.10312 3.87712 3.91128C4.06859 3.71943 4.29598 3.56718 4.54629 3.46321C4.79661 3.35924 5.06495 3.3056 5.336 3.30533C5.88341 3.3048 6.4086 3.52175 6.79605 3.90845C7.1835 4.29515 7.40147 4.81993 7.402 5.36733C7.40253 5.91474 7.18558 6.43994 6.79888 6.82739C6.41218 7.21484 5.88741 7.4328 5.34 7.43333ZM3.55733 20.4507H7.12V8.99733H3.556L3.55733 20.4507ZM22.224 0H1.77067C0.793333 0 0 0.774667 0 1.73067V22.268C0 23.224 0.793333 24 1.77067 24H22.224C23.2027 24 24 23.224 24 22.268V1.73067C24 0.774667 23.2027 0 22.224 0Z" fill="var(--fill-0, white)"/>
</g>
</svg>
