<svg preserveAspectRatio="none" width="100%" height="100%" overflow="visible" style="display: block;" viewBox="0 0 47.4551 101.649" fill="none" xmlns="http://www.w3.org/2000/svg">
<g id="Group 1171274873">
<path id="Vector 1" d="M0 0.0246713C0 0.399671 0 0.774671 0 1.14967C2.19591 1.21468 4.19077 1.37737 6.34486 1.67271C25.6588 3.55079 40.3051 20.0543 43.2534 38.6112C46.7217 57.1408 43.0197 76.8154 34.3356 93.7414C33.3599 95.622 32.3129 97.4722 31.1984 99.2777C31.5116 99.484 31.8248 99.6903 32.1379 99.8966C33.3731 98.1351 34.5396 96.3171 35.6319 94.4582C45.3711 77.7182 49.8312 57.4487 46.198 38.0371C43.2791 18.5756 26.4954 0.905546 6.50987 0.20068C4.28266 0.0104364 2.23593 -0.0352454 0 0.0246713Z" fill="url(#paint0_linear_0_24)"/>
<path id="Vector 2" d="M29.3156 89.0876C29.2997 89.4529 29.2888 89.817 29.2827 90.18C29.2278 93.4467 29.567 96.6196 30.3001 99.6988C30.3189 99.7775 30.3379 99.8562 30.3571 99.9348L30.7535 101.649L32.3973 100.969C35.2321 99.7539 37.9175 98.184 40.4538 96.2597C40.743 96.0403 41.0302 95.8162 41.3156 95.5876C40.9526 95.6319 40.5916 95.6808 40.2326 95.7344C37.0838 96.2038 34.0842 97.0276 31.2338 98.2059L33.274 99.2404C33.2558 99.1615 33.2373 99.0827 33.2185 99.0039C32.4854 95.9248 31.3583 92.9395 29.8372 90.048C29.6682 89.7267 29.4943 89.4066 29.3156 89.0876Z" fill="var(--stroke-0, #51C2CC)"/>
</g>
<defs>
<linearGradient id="paint0_linear_0_24" x1="-6.68457" y1="-3.41283" x2="23" y2="99.5872" gradientUnits="userSpaceOnUse">
<stop stop-color="#51C2CC" stop-opacity="0"/>
<stop offset="1" stop-color="#51C2CC"/>
</linearGradient>
</defs>
</svg>
