<svg preserveAspectRatio="none" width="100%" height="100%" overflow="visible" style="display: block;" viewBox="0 0 293.199 293.199" fill="none" xmlns="http://www.w3.org/2000/svg">
<g id="Laag_1-2">
<path id="Vector" d="M146.6 293.199C227.564 293.199 293.199 227.564 293.199 146.6C293.199 65.6349 227.564 0 146.6 0C65.6349 0 0 65.6349 0 146.6C0 227.564 65.6349 293.199 146.6 293.199Z" fill="var(--fill-0, #51C2CC)"/>
<path id="Vector_2" d="M205.337 12.2217C203.087 12.7081 200.837 13.4378 198.709 14.3499C194.21 16.2956 190.014 18.8494 186.244 22.0112C182.535 25.1123 179.191 28.6997 176.394 32.652C173.597 36.6043 171.529 40.6782 170.313 44.8129C169.705 46.6978 169.097 48.6436 168.611 50.5893C168.003 53.0215 167.577 55.4537 167.395 57.9467C167.091 60.8653 166.848 64.392 166.604 68.5875C166.422 72.783 166.239 78.1338 166.118 84.7007C165.996 91.2675 165.935 99.2329 165.814 108.597C165.692 117.961 165.631 129.149 165.631 142.039C165.631 162.287 165.631 178.461 165.449 190.622C165.327 202.783 165.145 212.572 164.841 219.869C164.537 227.166 163.99 232.82 163.26 236.894C162.53 241.09 161.497 245.164 160.281 249.238C157.97 256.291 153.531 262.615 146.843 268.148C140.154 273.681 132.189 276.417 122.825 276.417C116.38 276.417 110.786 275.019 106.104 272.222C101.422 269.425 97.5304 265.533 94.3686 260.669C91.2675 255.804 88.957 249.967 87.4977 243.157C86.0384 236.408 85.3087 228.929 85.3087 220.842C85.3087 213.849 86.2208 206.857 88.1057 200.108C89.9906 193.358 92.6052 187.278 95.8887 181.866C99.2329 176.455 103.307 171.955 108.05 168.428C112.853 164.902 118.022 162.834 123.676 162.166C128.054 161.558 130.243 160.585 130.243 159.369C130.243 158.092 129.27 156.997 127.264 155.903C124.953 154.747 122.521 153.714 120.089 152.923C117.109 151.95 114.008 151.221 110.907 150.734C107.928 150.248 104.888 150.005 101.848 149.944C91.8756 149.944 82.9373 151.829 75.1543 155.538C67.3714 159.308 60.8045 164.172 55.4537 170.192C50.2245 176.151 46.1506 183.022 43.4144 190.5C40.6782 197.979 39.3405 205.398 39.3405 212.633C39.3405 220.781 41.1646 229.415 44.8129 238.718C48.4612 247.961 53.9944 256.595 61.3517 264.621C62.507 265.898 63.7231 267.114 65 268.33C25.8419 242.184 0 197.432 0 146.6C0 65.6081 65.6081 0 146.6 0C166.848 0 186.852 4.13471 205.337 12.2217Z" fill="var(--fill-0, white)"/>
<path id="Vector_3" d="M293.199 146.599C293.199 227.53 227.591 293.199 146.599 293.199C141.492 293.199 136.445 292.955 131.338 292.408C141.918 292.104 151.768 290.341 160.949 286.997C170.739 283.47 179.799 278.119 187.642 271.248C195.425 264.377 201.932 256.047 207.161 246.258C212.39 236.468 215.917 225.463 217.802 213.18C218.41 208.802 218.957 201.87 219.382 192.385C219.808 182.899 219.99 172.563 219.99 161.314C219.99 152.984 219.808 144.593 219.504 136.202C219.2 127.75 218.896 119.724 218.592 112.001C218.288 104.279 218.045 97.0434 217.802 90.2941C217.619 83.5448 217.497 77.4644 217.497 72.0528C217.497 59.5879 217.984 49.4943 218.896 41.7722C219.808 34.05 221.267 28.1519 223.091 23.9564C223.396 23.2876 223.7 22.6795 223.943 22.1323C265.533 48.035 293.199 94.1248 293.199 146.66V146.599Z" fill="var(--fill-0, white)"/>
</g>
</svg>
