<svg preserveAspectRatio="none" width="100%" height="100%" overflow="visible" style="display: block;" viewBox="0 0 56 56" fill="none" xmlns="http://www.w3.org/2000/svg">
<g id="Laag_1-2">
<path id="Vector" d="M28 56C43.464 56 56 43.464 56 28C56 12.536 43.464 0 28 0C12.536 0 0 12.536 0 28C0 43.464 12.536 56 28 56Z" fill="var(--fill-0, white)"/>
<path id="Vector_2" d="M39.2186 2.3343C38.7889 2.42721 38.3592 2.56657 37.9527 2.74077C37.0933 3.1124 36.292 3.60017 35.572 4.20406C34.8635 4.79635 34.2248 5.48154 33.6906 6.23642C33.1564 6.99129 32.7615 7.76939 32.5292 8.5591C32.4131 8.91912 32.297 9.29075 32.2041 9.66238C32.0879 10.1269 32.0066 10.5915 31.9718 11.0676C31.9137 11.6251 31.8673 12.2986 31.8208 13.1C31.786 13.9013 31.7511 14.9233 31.7279 16.1775C31.7047 17.4318 31.6931 18.9531 31.6698 20.7416C31.6466 22.5301 31.635 24.6669 31.635 27.129C31.635 30.9963 31.635 34.0854 31.6002 36.4081C31.5769 38.7308 31.5421 40.6006 31.484 41.9942C31.426 43.3878 31.3214 44.4679 31.1821 45.246C31.0427 46.0473 30.8453 46.8254 30.613 47.6035C30.1717 48.9506 29.3239 50.1584 28.0465 51.2153C26.769 52.2721 25.2476 52.7947 23.4591 52.7947C22.2281 52.7947 21.1597 52.5276 20.2655 51.9934C19.3712 51.4591 18.628 50.7159 18.0241 49.7868C17.4318 48.8577 16.9905 47.7428 16.7117 46.4421C16.433 45.153 16.2937 43.7246 16.2937 42.18C16.2937 40.8445 16.4679 39.5089 16.8279 38.2198C17.1879 36.9307 17.6873 35.7694 18.3144 34.7358C18.9531 33.7022 19.7312 32.8428 20.6371 32.1692C21.5545 31.4956 22.5417 31.1008 23.6217 30.973C24.4579 30.8569 24.876 30.6711 24.876 30.4388C24.876 30.1949 24.6902 29.9859 24.3069 29.7769C23.8656 29.5562 23.4011 29.3588 22.9365 29.2078C22.3675 29.022 21.7752 28.8826 21.1829 28.7897C20.6139 28.6968 20.0332 28.6504 19.4525 28.6387C17.5479 28.6387 15.8407 28.9988 14.3542 29.7072C12.8677 30.4272 11.6134 31.3563 10.5915 32.506C9.5927 33.6441 8.8146 34.9564 8.29199 36.3849C7.76939 37.8134 7.51389 39.2302 7.51389 40.6122C7.51389 42.1684 7.8623 43.8175 8.5591 45.5944C9.25591 47.3596 10.3127 49.0087 11.718 50.5417C11.9386 50.7856 12.1709 51.0178 12.4148 51.2501C4.93571 46.2563 0 37.7088 0 28C0 12.5309 12.5309 0 28 0C31.8673 0 35.6881 0.789714 39.2186 2.3343Z" fill="var(--fill-0, #51C2CC)"/>
<path id="Vector_3" d="M55.9999 28C55.9999 43.4575 43.469 56 27.9999 56C27.0244 56 26.0605 55.9535 25.085 55.849C27.1057 55.791 28.9871 55.4542 30.7407 54.8154C32.6105 54.1418 34.3409 53.1199 35.839 51.8075C37.3255 50.4952 38.5682 48.9042 39.5669 47.0344C40.5657 45.1647 41.2392 43.0626 41.5993 40.7167C41.7154 39.8805 41.8199 38.5566 41.9012 36.7449C41.9825 34.9332 42.0173 32.9589 42.0173 30.8104C42.0173 29.2194 41.9825 27.6168 41.9244 26.0141C41.8664 24.3998 41.8083 22.8669 41.7502 21.3919C41.6922 19.917 41.6457 18.535 41.5993 17.246C41.5644 15.9569 41.5412 14.7955 41.5412 13.7619C41.5412 11.3812 41.6341 9.45333 41.8083 7.97843C41.9825 6.50352 42.2612 5.37702 42.6096 4.57569C42.6677 4.44794 42.7258 4.33181 42.7722 4.22729C50.7158 9.17461 55.9999 17.9776 55.9999 28.0116V28Z" fill="var(--fill-0, #51C2CC)"/>
</g>
</svg>
