<svg preserveAspectRatio="none" width="100%" height="100%" overflow="visible" style="display: block;" viewBox="0 0 88 88" fill="none" xmlns="http://www.w3.org/2000/svg">
<g id="Laag_1-2">
<g id="Vector">
</g>
<path id="Vector_2" d="M61.6292 3.66819C60.954 3.81418 60.2787 4.03318 59.64 4.30693C58.2895 4.89092 57.0303 5.6574 55.8988 6.60639C54.7856 7.53712 53.7818 8.61385 52.9423 9.80008C52.1029 10.9863 51.4824 12.209 51.1174 13.45C50.9349 14.0158 50.7524 14.5997 50.6064 15.1837C50.4239 15.9137 50.2961 16.6437 50.2414 17.392C50.1501 18.2679 50.0771 19.3264 50.0041 20.5856C49.9494 21.8449 49.8947 23.4508 49.8582 25.4218C49.8217 27.3928 49.8034 29.7835 49.7669 32.5939C49.7304 35.4044 49.7122 38.7623 49.7122 42.6313C49.7122 48.7084 49.7122 53.5628 49.6574 57.2128C49.6209 60.8627 49.5662 63.8009 49.4749 65.9909C49.3837 68.1808 49.2194 69.8781 49.0004 71.1008C48.7814 72.36 48.4712 73.5827 48.1062 74.8055C47.4127 76.9224 46.0805 78.8204 44.073 80.4811C42.0655 82.1418 39.6748 82.9631 36.8644 82.9631C34.9299 82.9631 33.2509 82.5433 31.8457 81.7039C30.4405 80.8644 29.2725 79.6964 28.3235 78.2364C27.3928 76.7764 26.6993 75.0245 26.2613 72.9805C25.8233 70.9548 25.6043 68.7101 25.6043 66.2829C25.6043 64.1842 25.8781 62.0854 26.4438 60.0597C27.0095 58.034 27.7943 56.209 28.7798 54.5848C29.7835 52.9606 31.0062 51.6101 32.4297 50.5516C33.8714 49.4932 35.4226 48.8727 37.1199 48.6719C38.4338 48.4894 39.0908 48.1974 39.0908 47.8324C39.0908 47.4492 38.7988 47.1207 38.1966 46.7922C37.5031 46.4455 36.7731 46.1352 36.0431 45.898C35.1489 45.606 34.2182 45.387 33.2874 45.241C32.3932 45.095 31.4807 45.022 30.5682 45.0037C27.5753 45.0037 24.8926 45.5695 22.5566 46.6827C20.2207 47.8142 18.2497 49.2742 16.6437 51.0809C15.0742 52.8693 13.8515 54.9316 13.0303 57.1763C12.209 59.421 11.8075 61.6474 11.8075 63.8192C11.8075 66.2646 12.355 68.8561 13.45 71.6483C14.545 74.4222 16.2057 77.0137 18.4139 79.4226C18.7607 79.8059 19.1257 80.1709 19.5089 80.5359C7.75612 72.6885 0 59.2567 0 44C0 19.6914 19.6914 0 44 0C50.0771 0 56.0813 1.24098 61.6292 3.66819Z" fill="var(--fill-0, white)" fill-opacity="0.2"/>
<path id="Vector_3" d="M87.9999 44C87.9999 68.2903 68.3085 88 43.9999 88C42.4669 88 40.9522 87.927 39.4192 87.7628C42.5947 87.6715 45.5511 87.1423 48.3068 86.1385C51.245 85.0801 53.9642 83.4741 56.3184 81.4119C58.6544 79.3497 60.6071 76.8494 62.1766 73.9112C63.7461 70.973 64.8045 67.6699 65.3703 63.9834C65.5528 62.6694 65.717 60.589 65.8448 57.742C65.9725 54.8951 66.0273 51.7926 66.0273 48.4164C66.0273 45.9162 65.9725 43.3978 65.8813 40.8793C65.79 38.3426 65.6988 35.9336 65.6075 33.6159C65.5163 31.2982 65.4433 29.1265 65.3703 27.1008C65.3155 25.0751 65.279 23.2501 65.279 21.6259C65.279 17.8847 65.425 14.8553 65.6988 12.5375C65.9725 10.2198 66.4105 8.44961 66.958 7.19038C67.0492 6.98964 67.1405 6.80714 67.2135 6.64289C79.6963 14.4173 87.9999 28.2505 87.9999 44.0183V44Z" fill="var(--fill-0, white)" fill-opacity="0.2"/>
</g>
</svg>
