<svg preserveAspectRatio="none" width="100%" height="100%" overflow="visible" style="display: block;" viewBox="0 0 14 14" fill="none" xmlns="http://www.w3.org/2000/svg">
<g id="basil:diamond-outline">
<path id="Vector" fill-rule="evenodd" clip-rule="evenodd" d="M3.81209 1.89583C3.644 1.89589 3.47853 1.93745 3.33036 2.01682C3.1822 2.0962 3.05592 2.21093 2.96276 2.35083L0.869172 5.49033C0.741422 5.68283 0.726256 5.929 0.829506 6.1355C1.97586 8.42647 3.56796 10.4656 5.51251 12.1333L6.53334 13.0089C6.66338 13.1204 6.82901 13.1817 7.0003 13.1817C7.17158 13.1817 7.33721 13.1204 7.46726 13.0089L8.48809 12.1339C10.4329 10.466 12.0252 8.42673 13.1717 6.1355C13.2749 5.929 13.2592 5.68283 13.1314 5.49033L11.0367 2.35083C10.9435 2.21112 10.8173 2.09655 10.6692 2.01729C10.5212 1.93802 10.3559 1.8965 10.1879 1.89642L3.81209 1.89583ZM3.69076 2.83558C3.70409 2.81564 3.72215 2.7993 3.74331 2.78801C3.76447 2.77671 3.7881 2.77081 3.81209 2.77083H5.17709L4.06001 5.45183C4.03518 5.51345 4.01567 5.57707 4.00167 5.642C3.59085 5.61136 3.18053 5.57441 2.77084 5.53117L1.95126 5.44542L3.69076 2.83558ZM1.91334 6.321C2.9606 8.24102 4.34222 9.95866 5.99317 11.3931L4.17026 6.53158C3.67291 6.49739 3.17621 6.45421 2.68042 6.40208L1.91334 6.321ZM5.12517 6.58583L7.00001 11.5873L8.87542 6.58583C7.62579 6.64248 6.37422 6.64248 5.12459 6.58583M9.83034 6.53158L8.00742 11.3931C9.65838 9.95866 11.04 8.24102 12.0873 6.321L11.3202 6.40208C10.8243 6.45381 10.3277 6.49697 9.83034 6.53158ZM12.0488 5.44542L11.2286 5.53175C10.8189 5.57499 10.4086 5.61194 9.99776 5.64258C9.98398 5.57747 9.96466 5.51365 9.94001 5.45183L8.82292 2.77083H10.1879C10.2119 2.77081 10.2355 2.77671 10.2567 2.78801C10.2779 2.7993 10.2959 2.81564 10.3093 2.83558L12.0488 5.44542ZM9.09534 5.69917C7.69884 5.7715 6.30195 5.7715 4.90467 5.69917L6.12501 2.77083H7.87501L9.09534 5.69917Z" fill="var(--fill-0, #51C2CC)"/>
</g>
</svg>
