<svg preserveAspectRatio="none" width="100%" height="100%" overflow="visible" style="display: block;" viewBox="0 0 20 20" fill="none" xmlns="http://www.w3.org/2000/svg">
<g id="fa7-regular:handshake">
<path id="Vector" d="M18.6906 4.35625C19.025 4.1125 19.1 3.64375 18.8563 3.30938C18.6125 2.975 18.1438 2.9 17.8094 3.14375L15.4812 4.8375L15.1719 4.63125C14.5562 4.21875 13.8312 4 13.0906 4H6.74062C5.90625 4 5.1 4.27813 4.44688 4.78438L2.19062 3.14375C1.85625 2.9 1.3875 2.975 1.14375 3.30938C0.9 3.64375 0.975 4.1125 1.30938 4.35625L4.05937 6.35625C4.35937 6.57187 4.76875 6.54063 5.03125 6.28125L5.15312 6.15938C5.575 5.7375 6.14688 5.5 6.74375 5.5H8.19063L5.325 8.36563C4.8375 8.85313 4.8375 9.64375 5.325 10.1344L5.35 10.1594C6.8125 11.625 9.1875 11.625 10.6531 10.1594L11.5 9.3125L14.5562 12.3687C15.0437 12.8562 15.0437 13.6469 14.5562 14.1375L14.25 14.4438L13.2812 13.475C12.9875 13.1813 12.5125 13.1813 12.2219 13.475C11.9312 13.7688 11.9281 14.2437 12.2219 14.5344L13.0969 15.4094C12.55 15.7344 11.9344 15.9312 11.2969 15.9875L9.78125 14.4687C9.4875 14.175 9.0125 14.175 8.72188 14.4687C8.43125 14.7625 8.42813 15.2375 8.72188 15.5281L9.19062 15.9969H9.07187C7.94375 15.9969 6.8625 15.55 6.06563 14.7531L2.03125 10.7188C1.7375 10.425 1.2625 10.425 0.971875 10.7188C0.68125 11.0125 0.678125 11.4875 0.971875 11.7781L5.00625 15.8156C6.08437 16.8937 7.54687 17.5 9.07187 17.5H10.6906L10.7219 17.5312L10.7531 17.5H10.9312C12.4562 17.5 13.9187 16.8937 14.9969 15.8156L15.6187 15.1938C15.6562 15.1563 15.6906 15.1219 15.725 15.0844C15.7469 15.0688 15.7656 15.05 15.7844 15.0312L19.0312 11.7812C19.325 11.4875 19.325 11.0125 19.0312 10.7219C18.7375 10.4313 18.2625 10.4281 17.9719 10.7219L16.2906 12.4031C16.1594 12.0031 15.9375 11.625 15.6187 11.3062L12.0312 7.71875C11.7375 7.425 11.2625 7.425 10.9719 7.71875L9.59375 9.09688C8.76562 9.925 7.45313 9.97188 6.57188 9.24063L9.65625 6.15625C10.075 5.7375 10.6437 5.5 11.2375 5.49687H13.0969C13.5406 5.49687 13.975 5.62812 14.3437 5.875L15.0844 6.375C15.3469 6.55 15.6875 6.54062 15.9406 6.35625L18.6906 4.35625Z" fill="var(--fill-0, white)"/>
</g>
</svg>
