<svg preserveAspectRatio="none" width="100%" height="100%" overflow="visible" style="display: block;" viewBox="0 0 64.05 64.9824" fill="none" xmlns="http://www.w3.org/2000/svg">
<g id="Ebene_1" clip-path="url(#clip0_0_54)">
<path id="Vector" d="M29.9418 20.56H29.7281C28.8541 20.5892 28.0285 20.7834 27.2613 21.1525V13.3538C27.2613 12.9362 26.8534 12.8391 26.5038 12.8391C15.6653 12.9168 5.56491 19.6665 1.69957 29.864C0.582699 32.8165 0.0194085 35.9243 -1.52588e-05 39.0709C-1.52588e-05 39.1098 -1.52588e-05 39.1486 0.0194085 39.1875C0.07768 39.5177 0.446732 39.5856 0.757513 39.5856H9.99353C10.3626 39.5856 11.2269 39.1098 10.8385 38.6436C9.74102 37.3422 9.32341 35.6038 9.99353 33.9916C10.5957 32.5154 12.0525 31.4568 13.6841 31.5539C14.0531 31.5733 14.393 31.6413 14.7135 31.7579C14.7329 31.7579 14.7427 31.7579 14.7621 31.7773C17.5397 32.7096 18.4817 36.4584 16.5199 38.7796C16.2868 39.0612 16.3548 39.2749 16.5394 39.4108C16.6947 39.5274 16.9181 39.5856 17.1318 39.5856H26.3387C26.5426 39.5856 26.8825 39.4691 27.0865 39.2652C27.1836 39.1875 27.2419 39.0903 27.2516 38.9835C27.2516 38.9641 27.2516 38.9544 27.2516 38.935V30.9032C30.0583 32.0492 33.6129 30.8935 34.8754 27.9217C36.3808 24.3574 33.6517 20.6863 29.9321 20.56H29.9418ZM33.5255 27.0087C32.8651 30.136 29.4076 31.0392 27.0671 29.0579C26.698 28.7472 25.5811 29.0288 25.5811 29.6018V38.4202H18.4817C20.5309 34.9045 18.103 30.3011 13.7229 30.3788C12.4118 30.3982 11.2367 30.8449 10.3043 31.5539C9.00292 32.5251 8.1677 34.011 8.05115 35.5941C8.03173 35.7883 8.03173 35.9825 8.04144 36.1768C8.07058 36.9343 8.26481 37.6918 8.67271 38.4202H1.69957C1.86467 32.0492 4.33149 25.9501 8.79897 21.3758C13.247 16.8209 19.2684 14.257 25.5811 14.0336V22.4733C25.5811 23.1434 26.5912 23.0754 26.9602 22.7549C27.7275 22.1236 28.4656 21.7934 29.4465 21.7352C32.1172 21.8711 34.0888 24.3282 33.5255 27.0087Z" fill="var(--fill-0, #45BBC5)"/>
<path id="Vector_2" d="M33.5255 27.0087C32.8651 30.1359 29.4076 31.0392 27.0671 29.0579C26.698 28.7471 25.5811 29.0288 25.5811 29.6018V38.4202H18.4817C20.531 34.9045 18.103 30.3011 13.7229 30.3787C12.4118 30.3982 11.2367 30.8449 10.3043 31.5539C8.82811 32.5057 7.79864 34.079 7.72095 35.9825V36.0019C7.7598 36.8954 7.98317 37.6918 8.41049 38.4202H1.69957C1.86467 32.0492 4.33149 25.9501 8.79897 21.3758C13.247 16.8209 19.2684 14.257 25.5811 14.0336V22.4733C25.5811 23.1434 26.5912 23.0754 26.9602 22.7549C27.7275 22.1236 28.4656 21.7934 29.4465 21.7352C32.1173 21.8711 34.0888 24.3282 33.5255 27.0087Z" fill="var(--fill-0, white)"/>
<path id="Vector_3" d="M27.1933 38.6826H27.1836C27.0671 38.6049 26.834 38.6049 26.766 38.6049H17.9962C18.0447 38.5466 18.0836 38.4786 18.1127 38.4204C20.0357 35.4582 18.5497 31.3695 14.8786 30.6605C13.2567 30.34 11.6057 30.7091 10.3043 31.554C8.82811 32.5058 7.79865 34.0791 7.72096 35.9827V36.0021C7.75981 36.8956 7.98318 37.692 8.4105 38.4204C8.43964 38.4786 8.47849 38.5466 8.51733 38.6049H1.18485C0.864354 38.6049 0.0582656 38.77 0.019418 39.1876C0.00970613 39.1973 0.00970613 39.2167 0.00970613 39.2264C0.0582656 46.1316 2.83587 52.7843 7.77923 57.6208C12.674 62.3893 19.2684 64.9436 26.0765 64.9824C26.2513 64.9824 26.5621 64.9339 26.8146 64.827C27.0574 64.7299 27.2516 64.5745 27.2516 64.3608V55.1248C27.2516 55.0374 27.2127 54.9889 27.1351 54.9597C26.8146 54.8238 25.9016 55.1637 25.7657 55.2705C25.1441 55.7949 24.4643 56.0669 23.7942 56.1252H23.7747C23.5416 56.1543 23.2989 56.1543 23.0755 56.1252C22.2208 56.028 21.4147 55.6201 20.7543 55.0083C20.6572 54.9306 20.5601 54.8335 20.463 54.7266C20.3853 54.6489 20.3173 54.581 20.259 54.4936C20.191 54.4159 20.1231 54.3382 20.0745 54.2508C19.754 53.7943 19.5112 53.2796 19.3558 52.7357C19.317 52.5997 19.2878 52.4638 19.2684 52.3181C19.2393 52.1918 19.2296 52.0656 19.2199 51.9393C19.2101 51.7159 19.2101 51.4926 19.2296 51.2595C19.2296 51.1332 19.249 51.007 19.2781 50.8807C19.2975 50.7545 19.3267 50.6282 19.3558 50.502C19.385 50.3854 19.4238 50.2689 19.4529 50.162C19.7152 49.3268 20.2202 48.579 20.9097 48.0448C22.4054 46.8794 24.2895 47.3747 25.6394 48.511C25.989 48.8024 27.2516 48.511 27.2516 47.9866V38.7797C27.2516 38.7797 27.2322 38.702 27.1933 38.6826ZM25.5909 46.9863H25.5811C22.2208 45.7334 17.7922 47.7341 17.5591 51.6674C17.53 52.1627 17.5785 52.658 17.6951 53.1242C17.7534 53.3864 17.8505 53.6389 17.9476 53.8817C18.3943 54.9403 19.1907 55.8338 20.2299 56.3777C20.2299 56.3874 20.2396 56.3874 20.2493 56.3874C20.3659 56.4456 20.4727 56.5039 20.5892 56.5622C20.7058 56.6107 20.832 56.6593 20.9486 56.6982C21.4633 56.8827 21.9975 56.9798 22.5316 56.9992H22.5413C22.8424 57.0186 23.1435 57.0089 23.4445 56.9701H23.4542C24.1923 56.9021 24.911 56.6884 25.5811 56.368H25.5909V64.1375H25.5811C19.2878 63.8073 13.2956 61.0879 8.88639 56.5622C4.43833 52.0073 1.93266 45.9179 1.69958 39.5858C1.68987 39.5275 1.68987 39.4692 1.68987 39.411H9.4691C9.70219 39.411 10.9356 39.1099 10.5957 38.702C9.81873 37.7794 9.43025 36.7499 9.38169 35.5553C9.47881 32.7 12.0913 30.5149 14.7135 31.758C14.733 31.758 14.7427 31.758 14.7621 31.7774C14.9369 31.8648 15.1214 31.9716 15.2962 32.0882C17.6562 33.6712 17.9767 36.9053 16.18 39.0322C15.9469 39.2944 16.3257 39.3915 16.5394 39.411H25.5909V46.9863ZM17.9476 53.8817C18.3943 54.9403 19.1907 55.8338 20.2299 56.3777C19.2199 55.7949 18.4138 54.9209 17.9476 53.8817Z" fill="var(--fill-0, #45BBC5)"/>
<path id="Vector_4" d="M18.035 49.7249C17.4814 50.8903 17.4134 52.0655 17.6951 53.1241C17.7533 53.3863 17.8505 53.6388 17.9476 53.8816C18.3943 54.9402 19.1907 55.8337 20.2299 56.3776C20.2299 56.3873 20.2396 56.3873 20.2493 56.3873C20.3561 56.4553 20.4727 56.5135 20.5892 56.5621C21.2788 56.902 22.0557 57.106 22.8812 57.1351C22.9201 57.1351 22.9589 57.1351 22.9978 57.1351H23.0949C23.9884 57.0963 24.8139 56.8923 25.5811 56.5233V64.1471C19.2878 63.8169 13.2956 61.0976 8.88638 56.5718C4.43832 52.0169 1.93265 45.9276 1.69957 39.5954H9.99353C10.3626 39.5954 11.2269 39.1195 10.8385 38.6533C9.74102 37.352 9.32341 35.6135 9.99353 34.0013C10.5957 32.5251 12.0525 31.4665 13.6841 31.5637C14.0531 31.5831 14.393 31.6511 14.7135 31.7676C14.7329 31.7676 14.7427 31.7676 14.7621 31.787C14.9369 31.8744 15.1214 31.9813 15.2962 32.0978C17.6562 33.6809 17.9767 36.9149 16.18 39.0418C15.9469 39.304 16.3257 39.4012 16.5394 39.4206C16.6947 39.5371 16.9181 39.5954 17.1318 39.5954H25.5811V46.9376C22.8327 45.8304 19.3947 46.8599 18.035 49.7346V49.7249Z" fill="var(--fill-0, white)"/>
<path id="Vector_5" d="M52.3083 38.2261H43.0722C42.7615 38.2261 41.5572 38.5563 41.9942 39.0905C43.0723 40.3627 43.4996 42.0332 42.9169 43.6356C42.3536 45.1993 40.8774 46.3744 39.1778 46.2579C35.5844 45.9956 34.0985 41.5379 36.3031 38.9254C36.5944 38.5757 36.4002 38.2261 35.934 38.2261H26.7271C26.494 38.2261 25.9016 38.3232 25.6685 38.6049C25.6102 38.6729 25.5811 38.7506 25.5811 38.838V46.928C22.8326 45.8208 19.3946 46.8503 18.035 49.725C17.4814 50.8904 17.4134 52.0656 17.695 53.1242C17.7533 53.3864 17.8504 53.6389 17.9476 53.8817C18.4137 54.9209 19.2198 55.7949 20.2299 56.3777C20.2299 56.3874 20.2396 56.3874 20.2493 56.3874C20.3658 56.4456 20.4727 56.5039 20.5892 56.5622C21.2787 56.9021 22.0557 57.1061 22.8812 57.1352C22.92 57.1352 22.9589 57.1352 22.9977 57.1352H23.0949C23.9884 57.0963 24.8139 56.8924 25.5811 56.5233V64.4191C25.5811 64.7105 25.8336 64.8562 26.1056 64.8562C26.3386 64.8562 26.5814 64.8562 26.8145 64.8367C37.4199 64.4968 47.161 58.0093 51.0652 48.0254C52.2306 45.0342 52.8133 41.8681 52.8327 38.6632C52.8327 38.3815 52.5802 38.2358 52.3083 38.2358V38.2261ZM44.16 56.3194C39.7119 60.9228 33.6323 63.613 27.2516 63.7781V55.2608C27.2516 55.1248 27.2127 55.018 27.135 54.9597C26.8339 54.6587 25.9987 54.9597 25.7462 55.1734C25.047 55.7561 24.3283 56.028 23.4542 56.0863C22.415 56.0377 21.4827 55.6396 20.7543 55.0083C20.6475 54.9112 20.5503 54.8238 20.4629 54.7266C20.3852 54.6489 20.3173 54.581 20.259 54.4936C20.191 54.4159 20.123 54.3382 20.0745 54.2508C19.7345 53.804 19.4917 53.2893 19.3558 52.7357C19.3169 52.5997 19.2878 52.4638 19.2684 52.3181C19.2392 52.1918 19.2295 52.0656 19.2198 51.9393C19.2101 51.7159 19.2101 51.4926 19.2295 51.2595C19.2392 51.1332 19.2587 51.007 19.2781 50.8807C19.2975 50.7545 19.3266 50.6282 19.3558 50.502C19.3849 50.3854 19.4238 50.2689 19.4529 50.162C20.3561 47.5787 23.4251 46.6755 25.6491 48.5596C25.9987 48.8607 27.2516 48.7635 27.2516 48.1323V39.2653H34.4481C32.2726 42.781 34.6812 47.4039 39.0904 47.297C43.2859 47.1999 46.1801 42.849 44.1308 39.2653H51.1526C51.0166 45.5975 48.5886 51.7257 44.16 56.3194Z" fill="var(--fill-0, #45BBC5)"/>
<path id="Vector_6" d="M51.1526 39.2651C51.0166 45.5973 48.5887 51.7255 44.16 56.3192C39.712 60.9227 33.6323 63.6129 27.2516 63.778V55.1247C27.2516 55.0372 27.2128 54.9887 27.1351 54.9596C26.834 54.6585 25.9988 54.9596 25.7463 55.1732C25.047 55.7559 24.3283 56.0279 23.4542 56.0861C22.4151 56.0376 21.4827 55.6394 20.7543 55.0081C20.6475 54.911 20.5504 54.8236 20.463 54.7265C20.3853 54.6488 20.3173 54.5808 20.259 54.4934C20.191 54.4157 20.1231 54.338 20.0745 54.2506C19.754 53.7941 19.5112 53.2794 19.3558 52.7355C19.317 52.5996 19.2878 52.4636 19.2684 52.3179C19.2393 52.1917 19.2296 52.0654 19.2199 51.9392C19.2101 51.7158 19.2101 51.4924 19.2296 51.2593C19.2393 51.1331 19.2587 51.0068 19.2781 50.8806C19.2976 50.7543 19.3267 50.628 19.3558 50.5018C19.385 50.3852 19.4238 50.2687 19.4529 50.1619C20.3562 47.5785 23.4251 46.6753 25.6491 48.5594C25.9988 48.8605 27.2516 48.7634 27.2516 48.1321V39.2651H34.4481C32.2727 42.7808 34.6812 47.4037 39.0904 47.2969C43.286 47.1997 46.1801 42.8488 44.1309 39.2651H51.1526Z" fill="var(--fill-0, white)"/>
<path id="Vector_7" d="M62.3795 18.5593C62.4281 24.8817 60.0584 30.9711 55.8725 35.662C53.969 33.7681 52.0655 31.8549 50.1619 29.9514C49.8512 29.6406 48.5886 30.0193 48.5498 30.4661C48.4429 31.6412 48.0253 32.593 47.2289 33.4574C45.1409 35.4094 42.0137 34.1081 40.9745 31.6704C39.9742 29.3201 41.1202 25.8335 43.9949 25.581C44.1697 25.5616 45.4711 25.2605 45.1215 24.9109L41.8583 21.6477C41.1104 20.8999 40.3723 20.1618 39.6342 19.4237C39.3137 19.1032 38.799 18.7341 38.5174 18.3456C38.5465 18.3165 38.5854 18.2582 38.6728 18.2C38.9253 18.0057 39.1584 17.7144 39.3817 17.4813L41.5669 15.2961C42.2273 14.6454 42.878 13.9947 43.5287 13.3343C44.665 17.0734 49.5501 17.996 52.6191 15.5583C54.1535 14.3346 54.9305 12.334 54.474 10.4013C53.9787 8.31323 52.25 6.9827 50.2202 6.64279C51.9878 4.87522 53.7553 3.10765 55.5229 1.34009C59.8641 6.02123 62.3407 12.1591 62.3795 18.5593Z" fill="var(--fill-0, white)"/>
<path id="Vector_8" d="M56.5038 0.126324C56.1833 -0.203881 55.2218 0.194307 54.9693 0.456528L48.4332 6.98293C48.239 7.18688 48.4818 7.30342 48.6663 7.32284C52.1043 7.63362 54.0856 11.5184 52.2014 14.4514C49.8317 18.1128 45.2963 15.306 44.9758 11.7709C44.9369 11.295 43.5481 11.8777 43.3927 12.0331C41.2173 14.2086 39.0515 16.3743 36.8761 18.5401C36.7984 18.6178 36.7789 18.7246 36.8566 18.8023C38.9544 20.9001 41.0619 23.0076 43.1597 25.1053C41.8 25.4744 40.5763 26.2125 39.7702 27.4265C38.7213 28.9901 38.6339 31.0879 39.6148 32.7098C41.5669 35.9632 46.0732 35.7787 48.6663 33.4479C48.6954 33.4284 48.7246 33.409 48.7537 33.3799C48.7926 33.3507 48.812 33.3216 48.8217 33.2925C49.2587 32.8069 49.5792 32.3019 49.8026 31.7483C51.5216 33.4576 53.2309 35.1669 54.9402 36.8859C55.2704 37.2064 56.2222 36.8179 56.4844 36.5557C61.2432 31.7191 64.0014 25.2413 64.05 18.4527C64.0888 11.5767 61.3112 5.0017 56.5038 0.126324ZM50.1619 29.9516C49.8512 29.6408 48.5886 30.0196 48.5498 30.4663C48.4429 31.6415 48.0253 32.5932 47.2289 33.4576C45.1409 35.4097 42.0137 34.1083 40.9745 31.6706C39.9742 29.3203 41.1202 25.8337 43.9949 25.5812C44.1697 25.5618 45.4711 25.2607 45.1215 24.9111L41.8583 21.6479C41.1104 20.9001 40.3723 20.162 39.6342 19.4239C39.3137 19.1034 38.799 18.7343 38.5174 18.3459C38.5465 18.3167 38.5854 18.2584 38.6728 18.2002C38.9253 18.0059 39.1584 17.7146 39.3817 17.4815L41.5669 15.2963C42.2273 14.6456 42.878 13.9949 43.5287 13.3345C44.665 17.0736 49.5501 17.9962 52.6191 15.5585C54.1535 14.3348 54.9305 12.3342 54.474 10.4015C53.9787 8.31346 52.25 6.98293 50.2202 6.64301C51.9878 4.87544 53.7553 3.10788 55.5229 1.34031C59.8641 6.02145 62.3407 12.1594 62.3795 18.5595C62.4281 24.882 60.0584 30.9713 55.8725 35.6622C53.969 33.7684 52.0655 31.8551 50.1619 29.9516Z" fill="var(--fill-0, #45BBC5)"/>
</g>
<defs>
<clipPath id="clip0_0_54">
<rect width="64.05" height="64.9824" fill="white"/>
</clipPath>
</defs>
</svg>
