<svg preserveAspectRatio="none" width="100%" height="100%" overflow="visible" style="display: block;" viewBox="0 0 69.075 62.9397" fill="none" xmlns="http://www.w3.org/2000/svg">
<g id="Ebene_1" clip-path="url(#clip0_0_99)">
<path id="Vector" d="M64.5376 17.5428C64.4676 23.0367 61.1784 28.5538 55.8479 30.4434C50.494 32.333 44.277 29.6036 41.1044 25.1245C37.9667 20.7038 37.6168 14.6968 40.2879 9.96116C43.1339 4.88727 48.6511 2.29783 54.3198 3.89581C60.3969 5.61044 64.456 11.3142 64.5376 17.5428Z" fill="var(--fill-0, white)"/>
<path id="Vector_2" d="M56.6177 2.98641C50.6923 1.24845 43.6005 3.30134 39.5414 7.932C35.2723 12.7843 34.7124 20.121 38.3283 25.5098C41.9092 30.8404 48.4061 32.9516 54.5531 31.5752C61.6216 30.0005 66.9988 24.2501 67.1037 16.8551C67.0104 10.4398 62.7763 4.80601 56.6177 2.98641ZM55.8478 30.4438C50.494 32.3334 44.277 29.604 41.1044 25.1249C37.9667 20.7042 37.6168 14.6972 40.2879 9.96156C43.1339 4.88766 48.6511 2.29822 54.3198 3.89621C60.3969 5.61084 64.456 11.3146 64.5376 17.5432C64.4676 23.0371 61.1784 28.5542 55.8478 30.4438Z" fill="var(--fill-0, #45BBC5)"/>
<path id="Vector_3" d="M48.1028 40.1365C49.6308 38.9234 50.4357 36.9639 49.3626 34.9576C48.2078 32.7764 45.9566 32.6948 43.7871 32.6948H34.0126C34.6891 29.0556 35.7622 25.0198 34.1642 21.5439C33.1844 19.386 31.5514 16.9715 29.032 16.575C27.434 16.3184 25.7777 16.7499 24.378 17.5431C24.0631 17.7297 23.9114 18.0446 23.9348 18.3946L24.308 23.865C24.3547 24.5649 24.2613 25.5214 24.448 26.2212H24.4363C24.238 26.3612 24.0747 26.7344 23.9464 26.9211C22.3251 29.2189 20.7038 31.5167 19.0941 33.8262C18.6626 34.4328 18.231 35.051 17.8111 35.6575C17.7761 35.7041 17.7411 35.7625 17.7061 35.8091C17.2979 35.9724 16.9129 36.1707 16.528 36.3923C12.9705 38.4336 10.3927 42.2944 10.0194 46.3302C9.50622 51.8007 11.6641 57.1545 16.528 59.6739C16.8546 59.8606 17.2045 60.0122 17.5661 60.1638C17.6478 60.1988 17.7294 60.2222 17.8111 60.2571C18.231 60.4204 18.6509 60.5604 19.0941 60.6771C19.794 60.8753 20.5172 61.0153 21.2287 61.062C21.287 61.0736 21.3453 61.0736 21.4036 61.0736H33.4294C34.6191 61.0736 35.7972 61.0736 36.9753 61.0736C38.9931 61.0853 41.1277 61.3186 43.1456 61.0853C44.9535 60.8753 46.7731 59.5456 47.0297 57.6444C47.1697 56.6296 46.8431 55.7081 46.2366 55.0083C47.6596 54.5767 48.8493 53.7019 49.3159 51.9873C49.6892 50.5876 49.3042 48.9546 48.3128 47.9398C49.3742 47.3449 50.214 46.4235 50.5406 45.2454C51.2172 42.8309 49.9808 40.9647 48.1028 40.1249V40.1365ZM45.3034 53.6786C44.8602 53.7836 44.312 53.7019 43.8571 53.7019C43.2972 53.7019 42.5857 53.8302 42.2591 54.3434C42.0025 54.7633 42.1075 55.2299 42.644 55.3582C44.4403 55.8014 45.4317 58.9741 43.1339 59.4057C42.1191 59.5923 40.8711 59.394 39.833 59.3823C38.27 59.3707 36.707 59.359 35.144 59.359H22.3251C21.1587 59.3007 20.0856 59.0441 19.0941 58.6242C18.6509 58.4259 18.2193 58.2043 17.8111 57.9476C17.3562 57.656 16.9363 57.3411 16.528 56.9795C12.4922 53.387 11.1742 46.5168 13.9969 41.6062C14.6501 40.4748 15.5132 39.46 16.528 38.6202C16.9363 38.2819 17.3678 37.967 17.8111 37.6987C17.9511 37.6054 18.091 37.5237 18.231 37.4421C18.5343 37.2671 18.8259 37.1272 19.0941 36.9639C19.4557 36.7539 19.7823 36.4973 20.0739 36.0774C22.2318 33.0331 24.3663 29.9771 26.5125 26.9211C27.294 25.813 26.9791 24.7865 26.8858 23.4451L26.5359 18.4179C26.7108 18.3479 26.8741 18.2896 26.9558 18.2779C28.1222 18.0563 28.9387 18.5929 29.7202 19.4327C31.1898 20.9957 32.2863 23.1185 32.4262 25.2764C32.6129 27.9942 31.7497 30.9918 31.2948 33.6746C31.2132 34.1178 31.7381 34.4094 32.123 34.4094H43.8804C45.0585 34.4094 46.1433 34.5844 46.8198 35.7041C47.7063 37.1855 47.1347 39.5416 45.1985 39.6466C43.8221 39.7633 43.1572 41.4662 44.9302 41.3612C48.4994 41.0696 49.3042 46.89 45.9566 46.96C45.2101 46.9834 43.6938 48.3714 45.0585 48.628C46.1783 48.838 46.7498 49.9344 46.8431 50.9842C46.9364 52.0923 46.4932 53.387 45.3034 53.6786Z" fill="var(--fill-0, #45BBC5)"/>
<path id="Vector_4" d="M17.8111 32.2399H1.28305V62.3916H17.8111V32.2399Z" fill="var(--fill-0, white)"/>
<path id="Vector_5" d="M45.0585 48.6277C46.1783 48.8376 46.7498 49.9341 46.8431 50.9838C46.9364 52.0919 46.4932 53.3867 45.3035 53.6783C44.8602 53.7832 44.312 53.7016 43.8571 53.7016C43.2972 53.7016 42.5857 53.8299 42.2591 54.3431C42.0025 54.763 42.1075 55.2296 42.644 55.3579C44.4403 55.8011 45.4318 58.9738 43.1339 59.4053C42.1192 59.592 40.8711 59.3937 39.833 59.382C38.27 59.3704 36.707 59.3587 35.144 59.3587H22.3251C21.1587 59.3004 20.0856 59.0438 19.0942 58.6238V36.9636C19.4557 36.7536 19.7823 36.497 20.0739 36.0771C22.2318 33.0327 24.3663 29.9767 26.5125 26.9207C27.294 25.8126 26.9791 24.7862 26.8858 23.4448L26.5359 18.4176C26.7108 18.3476 26.8741 18.2893 26.9558 18.2776C28.1222 18.056 28.9387 18.5926 29.7202 19.4324C31.1899 20.9954 32.2863 23.1182 32.4263 25.2761C32.6129 27.9938 31.7497 30.9915 31.2948 33.6743C31.2132 34.1175 31.7381 34.4091 32.123 34.4091H43.8804C45.0585 34.4091 46.1433 34.5841 46.8198 35.7038C47.7063 37.1852 47.1347 39.5413 45.1985 39.6463C43.8221 39.763 43.1573 41.4659 44.9302 41.3609C48.4994 41.0693 49.3043 46.8897 45.9567 46.9597C45.2102 46.983 43.6938 48.3711 45.0585 48.6277Z" fill="var(--fill-0, white)"/>
<path id="Vector_6" d="M18.6393 31.6914H2.11123C1.62133 31.6914 1.7699e-05 31.8663 1.7699e-05 32.5779V62.7413C1.7699e-05 62.8929 0.384934 62.9396 0.454919 62.9396H17.0763C17.193 62.9396 17.3213 62.9279 17.4496 62.9163H17.4846C17.4846 62.9163 17.5312 62.9163 17.5429 62.9163C17.9628 62.8813 18.4177 62.7763 18.721 62.543C18.9426 62.4147 19.0942 62.2514 19.0942 62.0648V31.913C19.0942 31.7497 18.7093 31.703 18.6393 31.703V31.6914ZM16.5281 61.8432H2.56613V32.7878H16.5281V61.8432Z" fill="var(--fill-0, #45BBC5)"/>
<path id="Vector_7" d="M40.2646 9.54123C44.697 13.0871 48.6744 17.0763 52.5236 21.217L49.9808 21.2637C55.7312 13.6587 61.8666 6.28694 69.075 -2.7312e-05C64.526 8.42148 58.7056 16.0265 52.5586 23.3282L51.2406 24.8796C47.2631 20.004 43.4489 15.0117 40.2646 9.5529V9.54123Z" fill="var(--fill-0, #45BBC5)"/>
</g>
<defs>
<clipPath id="clip0_0_99">
<rect width="69.075" height="62.9397" fill="white"/>
</clipPath>
</defs>
</svg>
