<svg preserveAspectRatio="none" width="100%" height="100%" overflow="visible" style="display: block;" viewBox="0 0 64 61.6296" fill="none" xmlns="http://www.w3.org/2000/svg">
<g id="Ebene_1" clip-path="url(#clip0_0_107)">
<path id="Vector" d="M53.5611 1.00262C47.1096 -1.45684 39.6164 0.728018 35.2594 6.37521C34.7666 7.00798 34.3297 7.67657 33.9377 8.38098C30.4319 2.11295 23.5212 -1.14642 16.6217 0.381784C9.27408 2.0055 3.80821 9.00181 3.71861 16.9891V17.0249C3.75221 22.3497 4.78266 27.4119 6.64195 32.0801C6.75396 32.3547 6.86596 32.6293 6.98917 32.9039C7.10117 33.1785 7.22438 33.4411 7.34759 33.7157C9.80051 39.1839 13.4183 44.0908 17.8761 48.2218C20.553 50.7051 23.4764 52.8899 26.5453 54.7883C26.7806 54.9315 27.027 55.0748 27.2622 55.2061C27.4974 55.3494 27.7214 55.4927 27.9566 55.624C27.9566 55.6359 27.9902 55.6359 28.0014 55.6479C29.5471 56.5433 31.2608 57.6775 32.9745 58.167C34.3521 58.573 36.0098 57.0686 37.1299 56.3642C38.922 55.2539 40.6805 54.0839 42.3941 52.8302C45.3623 50.6693 48.1624 48.2815 50.7498 45.631C54.6812 41.6075 58.0973 36.9632 60.5166 31.7577C62.6784 27.0895 64.1792 21.8125 63.9888 16.5593C63.7424 9.58683 59.8222 3.39044 53.5611 1.00262ZM53.8635 38.7063C48.532 46.0727 41.3861 51.6841 33.7697 56.1016C32.3584 55.5046 30.9696 54.7763 29.6143 53.9883C29.3567 53.8331 29.0991 53.6779 28.8415 53.5227C28.6063 53.3675 28.371 53.2242 28.1358 53.081C27.083 52.4124 26.0637 51.7199 25.0669 51.0036C19.8922 47.2905 15.2328 42.6343 11.839 37.0348C11.6262 36.6886 11.4134 36.3304 11.223 35.9722C10.7302 35.1126 10.2709 34.2291 9.84531 33.3218C9.5989 32.8084 9.37489 32.295 9.16208 31.7697C9.03887 31.4951 8.92687 31.2205 8.82606 30.9339C8.71406 30.6474 8.60205 30.3728 8.50125 30.0863C6.98917 25.8598 6.23873 21.3468 6.21633 16.8219C6.29473 10.0644 10.4277 3.89188 16.7225 2.32786C23.4092 0.668322 30.1407 4.9067 32.6273 11.5807C33.0081 12.5955 34.6994 12.3209 35.0466 11.3896C38.0371 3.36656 46.8296 -0.48977 54.0987 3.72473C57.2349 5.55141 59.6542 8.65558 60.7855 12.2612C61.2671 13.8371 61.4799 15.425 61.5247 17.0607C61.5247 17.0965 61.5359 17.395 61.5359 17.5025C61.5247 25.2032 58.1981 32.7009 53.8635 38.7063Z" fill="var(--fill-0, #45BBC5)"/>
<path id="Vector_2" d="M31.2608 49.4755L12.5223 36.7962C12.7239 36.6887 12.9143 36.5455 13.0711 36.3783C14.6168 34.7307 16.1737 33.0831 17.7193 31.4355H17.7305L20.7323 34.6233C20.5419 34.8143 20.3403 35.0292 20.1499 35.2322C19.7242 35.6739 20.5083 35.8769 20.7883 35.8769C21.3707 35.8769 22.0092 35.6381 22.4236 35.1963C22.9948 34.5875 23.5548 33.9905 24.1261 33.3935C24.2717 33.3458 24.4061 33.2742 24.5405 33.1786H24.5517L27.2958 36.1157C27.1838 36.235 27.083 36.3425 26.971 36.4619C26.8926 36.5455 26.8366 36.641 26.803 36.7365C26.0078 37.5961 25.2013 38.4438 24.3949 39.3034C24.0029 39.7213 24.1821 40.2346 24.6749 40.4137C25.0781 40.5451 25.5821 40.4495 25.9854 40.2227L28.8863 43.3149C28.7743 43.4463 28.6511 43.5776 28.5279 43.7089C28.4495 43.7925 28.3935 43.8761 28.3599 43.9596C28.2927 44.1149 28.2927 44.2581 28.3487 44.3895C28.3711 44.4491 28.4047 44.5088 28.4383 44.5566C28.5279 44.6641 28.6511 44.7596 28.8079 44.8073C29.0991 44.9148 29.4463 44.8909 29.7711 44.7715L31.2608 49.4755Z" fill="var(--fill-0, white)"/>
<path id="Vector_3" d="M43.9847 37.3811L31.608 50.5738L31.3504 49.75L31.2832 49.571L31.2608 49.4754L29.7712 44.7714V44.7356L29.5359 44.0073H29.5247L39.8517 32.9875C39.9189 32.9159 39.9973 32.8443 40.0757 32.7726C40.6357 32.2831 41.3189 32.0563 42.0134 32.0802C42.719 32.1041 43.4358 32.4025 43.9847 32.9875C45.1271 34.2053 45.1271 36.1633 43.9847 37.3811Z" fill="var(--fill-0, white)"/>
<path id="Vector_4" d="M46.0006 35.7574C45.7318 36.9393 44.9366 37.7154 44.175 38.5272L32.6048 50.8603C32.4928 50.9797 32.3584 51.0752 32.2016 51.1588C31.7871 51.3976 31.2719 51.4931 30.8687 51.3618C30.5103 51.2304 30.3311 50.9678 30.3871 50.6812C30.4095 50.5499 30.4879 50.4186 30.5999 50.2992L42.0693 38.0735C42.6405 37.4646 43.3237 36.8916 43.5253 36.032C43.8613 34.5396 42.4277 32.1398 40.994 33.1666C40.9156 33.2263 40.8372 33.286 40.7588 33.3695C37.253 36.8796 33.9376 40.6404 30.5327 44.2699C30.3423 44.4729 30.0623 44.64 29.7598 44.7356C29.435 44.843 29.0766 44.8669 28.7854 44.7714C28.6398 44.7236 28.5278 44.64 28.4382 44.5565C28.4046 44.5087 28.371 44.449 28.3486 44.3893C28.2926 44.258 28.2926 44.1147 28.3598 43.9595C28.3934 43.8759 28.4494 43.7924 28.5278 43.7088C28.6622 43.5775 28.7742 43.4581 28.8974 43.3267C30.8575 41.2255 32.8176 39.1361 34.7889 37.0348C35.8641 35.8887 36.9506 34.7306 38.0371 33.5844C38.9555 32.5935 39.8291 31.71 41.1732 31.3876C41.2516 31.3638 41.3188 31.3518 41.4084 31.3518H41.4196C41.8452 31.2683 42.2933 31.2563 42.7189 31.316C44.7462 31.6025 46.5495 33.2979 46.0006 35.7574Z" fill="var(--fill-0, #45BBC5)"/>
<path id="Vector_5" d="M41.9125 30.8145L41.4197 31.3518H41.4085L40.0756 32.7725L29.5359 44.0072L28.8862 43.3147L25.9853 40.2225L25.4141 39.6136L28.0014 36.8557L37.7907 26.409C37.8803 26.3135 37.9699 26.2299 38.0595 26.1702C38.6419 25.6687 39.37 25.4538 40.0756 25.5135C40.7476 25.5613 41.3973 25.8598 41.9125 26.409C43.0549 27.6268 43.0549 29.5967 41.9125 30.8145Z" fill="var(--fill-0, white)"/>
<path id="Vector_6" d="M42.7189 31.316C42.7189 31.316 42.6741 31.3757 42.6517 31.3996C42.4389 31.6264 42.226 31.8532 42.0132 32.0801C41.6772 32.4383 41.33 32.8084 40.994 33.1665C37.5106 36.8796 34.0384 40.5927 30.5439 44.3057C30.3423 44.5206 30.0734 44.6878 29.771 44.7713C29.4462 44.8907 29.099 44.9146 28.8078 44.8072C28.651 44.7594 28.5278 44.6639 28.4382 44.5564C28.4046 44.5087 28.371 44.449 28.3486 44.3893C28.2925 44.258 28.3037 44.1147 28.3598 43.9595C28.3934 43.8759 28.4494 43.7923 28.5278 43.7088C28.651 43.5774 28.7742 43.4461 28.8862 43.3148C30.7231 41.3687 32.5488 39.4226 34.3633 37.4766C34.5089 37.3213 34.6433 37.1781 34.7889 37.0348C36.7266 34.9693 38.6643 32.8919 40.602 30.8384C40.8148 30.6116 41.0276 30.3967 41.1844 30.134C41.8676 28.9759 41.4756 27.3403 40.4004 26.6478C39.8963 26.3254 39.4931 26.3374 39.1459 26.5045C38.7427 26.7075 38.4067 27.1254 38.0482 27.5193C34.8673 30.91 31.6751 34.3127 28.4942 37.7034C27.7997 38.4436 27.1165 39.1719 26.4221 39.9121C26.2988 40.0315 26.1532 40.1509 25.9852 40.2225C25.582 40.4494 25.078 40.5449 24.6748 40.4136C24.1819 40.2345 24.0027 39.7211 24.3948 39.3032C25.2012 38.4436 26.0076 37.5959 26.8029 36.7363C26.9933 36.5453 27.1725 36.3543 27.3517 36.1633L30.8239 32.4621C32.7952 30.3609 34.7217 28.1999 36.749 26.1463C37.4434 25.43 38.3955 24.9286 39.3811 24.7495C39.8627 24.654 40.3668 24.6301 40.8372 24.7017C41.8116 24.8211 42.7301 25.3106 43.3573 26.2538C44.4998 27.9492 43.9845 29.9191 42.7189 31.316Z" fill="var(--fill-0, #45BBC5)"/>
<path id="Vector_7" d="M40.3893 23.6748L39.3812 24.7493L38.0595 26.17L28.0126 36.8675H28.0014L27.3518 36.163L27.2958 36.1153L24.5517 33.1783H24.5405L24.4285 33.0589L23.8796 32.4739L36.2562 19.2812C37.3987 18.0634 39.2468 18.0634 40.3893 19.2812C41.5317 20.487 41.5317 22.457 40.3893 23.6748Z" fill="var(--fill-0, white)"/>
<path id="Vector_8" d="M41.1508 24.3674L40.8372 24.7017L40.0756 25.5135L39.1459 26.5045L29.043 37.2855C28.8862 37.4526 28.707 37.5959 28.4942 37.7033C28.1246 37.8824 27.6989 37.9541 27.3069 37.775C27.2733 37.763 27.2397 37.7392 27.2061 37.7033C26.8701 37.5243 26.6685 37.1064 26.8029 36.7363C26.8365 36.6408 26.8925 36.5453 26.9709 36.4617C27.0829 36.3423 27.1837 36.2348 27.2957 36.1154C29.1326 34.1574 30.9807 32.1875 32.8176 30.2414C34.8897 28.0207 36.973 25.812 39.0451 23.5913C39.2579 23.3645 39.4931 23.1376 39.6611 22.8869C40.3444 21.7766 39.9188 20.2006 38.8883 19.5798C37.8018 18.947 37.2306 19.7469 36.5474 20.4872C32.672 24.6181 28.7966 28.749 24.9212 32.88C24.8092 32.9993 24.686 33.0949 24.5516 33.1784H24.5404C24.406 33.2739 24.2716 33.3456 24.126 33.3933C23.8123 33.5008 23.4763 33.5127 23.1739 33.3814C23.1403 33.3695 23.0955 33.3456 23.0619 33.3098C22.8043 33.1546 22.6363 32.88 22.6363 32.5815C22.6363 32.4024 22.7035 32.2233 22.8491 32.0681C24.9884 29.7758 27.1277 27.4954 29.267 25.2151C30.5439 23.854 31.8095 22.4929 33.0864 21.1319C33.5568 20.6304 34.0273 20.129 34.5089 19.6276C34.7329 19.3888 34.9681 19.15 35.1921 18.9112C35.3265 18.7799 35.4609 18.6485 35.6065 18.5292C37.4434 16.989 40.3332 16.8696 41.8228 19.0784C42.9989 20.8215 42.4837 22.9466 41.1508 24.3674Z" fill="var(--fill-0, #45BBC5)"/>
<path id="Vector_9" d="M34.509 19.6278C34.565 20.4755 34.2849 21.359 33.6689 22.0156L23.062 33.31L21.2811 35.2083L17.1593 30.8147L29.5359 17.622C30.6784 16.4042 32.5265 16.4042 33.6689 17.622C34.1953 18.1832 34.4754 18.8995 34.509 19.6278Z" fill="var(--fill-0, white)"/>
<path id="Vector_10" d="M35.6962 19.8782C35.5954 20.7497 35.1698 21.6093 34.5314 22.2899C31.1712 25.8716 27.7998 29.4653 24.4285 33.0589C24.3277 33.1664 24.2269 33.2738 24.1261 33.3932C23.5548 33.9902 22.9948 34.5871 22.4236 35.196C22.0092 35.6378 21.3707 35.8885 20.7883 35.8766C20.5083 35.8766 19.7242 35.6736 20.1499 35.2318C20.3403 35.0289 20.5419 34.814 20.7323 34.623C21.3707 33.9305 21.998 33.2619 22.6364 32.5814L25.9966 28.9996C28.0687 26.7909 30.152 24.5702 32.2241 22.3615C32.4369 22.1347 32.6609 21.9078 32.8401 21.6452C32.9521 21.4899 33.0305 21.3109 33.0865 21.1318C33.5121 20.0453 33.1985 18.7081 32.3361 17.9321C31.8096 17.4545 31.1488 17.1561 30.6 17.6694C30.3648 17.8963 30.152 18.1589 29.9167 18.3977L19.1978 29.8354L18.2906 30.8024C18.1002 31.0054 17.8537 31.1726 17.5961 31.28C17.2937 31.4233 16.9801 31.4949 16.6665 31.483C16.6329 31.483 16.6105 31.483 16.5657 31.483C16.2857 31.4591 15.7816 31.2919 15.9384 30.9696C15.9496 30.9338 15.9833 30.886 16.0281 30.8383C16.3081 30.5398 16.5881 30.2413 16.8681 29.9548C16.8793 29.9309 16.9017 29.9189 16.9129 29.8951C17.5625 29.2026 18.2234 28.4982 18.873 27.8057L22.446 23.9972C24.4173 21.8959 26.3774 19.7707 28.3711 17.6814C30.0176 15.9621 33.2993 15.21 34.9794 17.3232C35.293 17.7053 35.4946 18.1231 35.6066 18.541C35.7298 18.9947 35.7634 19.4484 35.6962 19.8901V19.8782Z" fill="var(--fill-0, #45BBC5)"/>
<path id="Vector_11" d="M32.1008 50.0483L28.8414 53.5226L27.2622 55.206L26.0973 56.4476C20.4074 62.5127 11.1894 62.5127 5.49947 56.4476C-0.190411 50.3826 -0.190411 40.5567 5.49947 34.4916L6.98915 32.9037L8.82604 30.9338L13.8887 25.5254C15.0199 24.3076 16.868 24.3076 18.0105 25.5254C18.5929 26.1462 18.8841 26.97 18.8729 27.7938C18.8617 28.4624 18.6377 29.1429 18.2121 29.6921C18.1449 29.7757 18.0777 29.8593 18.0105 29.9309L16.5656 31.471L11.9398 36.4019L12.5222 36.7959L31.2608 49.4752L31.328 49.523L31.5072 49.6543H31.5184L32.1008 50.0483Z" fill="var(--fill-0, white)"/>
<path id="Vector_12" d="M61.5359 17.5025C61.5247 25.2032 58.1981 32.7009 53.8635 38.7063C48.532 46.0727 41.386 51.6841 33.7697 56.1016C32.3584 55.5046 30.9695 54.7763 29.6143 53.9883C30.4879 53.0571 31.3391 52.102 32.2016 51.1588C32.3584 51.0752 32.4928 50.9797 32.6048 50.8603L44.175 38.5272C44.9366 37.7154 45.7319 36.9393 46.0007 35.7573C46.5495 33.2979 44.7462 31.6025 42.7189 31.316C43.9846 29.9191 44.4998 27.9492 43.3573 26.2538C42.7301 25.3106 41.8117 24.8211 40.8372 24.7017L41.1508 24.3674C42.4837 22.9467 42.9989 20.8215 41.8229 19.0784C40.3332 16.8697 37.4435 16.9891 35.6066 18.5292C35.4946 18.1114 35.2929 17.6935 34.9793 17.3114C33.2992 15.1982 30.0175 15.9504 28.371 17.6696C26.3773 19.759 24.4172 21.8841 22.4459 23.9854L19.9818 26.612C19.825 25.8956 19.4442 25.239 18.8617 24.7614C16.5656 22.8392 13.7655 24.451 12.0294 26.3016C10.8533 27.5671 9.67726 28.8207 8.5012 30.0863C6.98913 25.8598 6.23869 21.3469 6.21629 16.8219C6.29469 10.0644 10.4277 3.89189 16.7224 2.32787C23.4092 0.668332 30.1407 4.90671 32.6272 11.5807C33.008 12.5955 34.6993 12.3209 35.0465 11.3896C38.0371 3.36657 46.8295 -0.489761 54.0987 3.72474C57.2348 5.55142 59.6542 8.65559 60.7854 12.2612C61.267 13.8372 61.4799 15.4251 61.5247 17.0607C61.5247 17.0965 61.5359 17.395 61.5359 17.5025Z" fill="var(--fill-0, white)"/>
<path id="Vector_13" d="M33.2432 50.0366C32.896 50.4067 32.5488 50.7768 32.2016 51.1589C31.3391 52.102 30.4879 53.0572 29.6142 53.9884C29.0878 54.5615 28.5502 55.1226 28.0014 55.648C25.4588 58.1791 22.6699 60.3281 19.1417 61.1877C11.2341 63.1218 2.78891 58.573 0.548793 50.0246C-0.51526 46.0012 -3.42852e-05 41.6076 1.91526 37.9662C3.09132 35.7335 4.80501 34.0382 6.48509 32.2473C6.54109 32.1876 6.58589 32.1399 6.6419 32.0802C7.25793 31.4116 7.88516 30.7549 8.50119 30.0863C9.67725 28.8208 10.8533 27.5672 12.0294 26.3017C13.7655 24.4511 16.5656 22.8393 18.8617 24.7615C19.4441 25.2391 19.825 25.8957 19.9818 26.6121C20.0714 26.9702 20.0938 27.3404 20.0602 27.7224C20.0266 28.3074 19.8362 28.9044 19.5113 29.4178C19.4217 29.561 19.3209 29.7043 19.1977 29.8356C18.7609 30.4087 18.2121 30.9101 17.7305 31.4235H17.7193C16.1736 33.0831 14.6167 34.7307 13.071 36.3783C12.9142 36.5454 12.7238 36.6887 12.5222 36.7961C12.3094 36.9155 12.0742 36.9991 11.839 37.0349C11.7046 37.0707 11.5701 37.0707 11.4469 37.0707C11.1669 37.0588 10.3717 36.8678 10.8085 36.4141L11.2229 35.9723C12.567 34.5277 13.9111 33.095 15.2663 31.6504C15.4903 31.4235 15.7144 31.1847 15.9384 30.9579C16.2632 30.6236 16.5768 30.2893 16.868 29.9431C16.8792 29.9192 16.9016 29.9073 16.9128 29.8834C17.5848 29.0357 17.8313 27.9731 17.4168 26.9105C17.0808 26.0032 15.9272 24.869 15.0087 25.5137C13.7991 26.3852 12.735 27.9612 11.7046 29.0596L9.16202 31.7698C8.55719 32.4145 7.95236 33.0711 7.34753 33.7158C7.28033 33.7875 7.20193 33.871 7.13472 33.9427C2.6881 38.7064 1.09762 45.5833 3.88656 51.8036C7.05632 58.8835 15.5463 62.6682 22.1883 58.6924C23.8684 57.6895 25.2012 56.233 26.5453 54.7883C26.7581 54.5496 26.9821 54.3108 27.1949 54.0839C27.5085 53.7496 27.8222 53.4153 28.1358 53.0811L30.9695 50.0605C31.0815 49.9411 31.2047 49.8336 31.3503 49.75C31.4063 49.7142 31.4511 49.6784 31.5071 49.6545H31.5183C31.8544 49.4635 32.2352 49.3561 32.6048 49.3799C32.6384 49.3799 32.672 49.3799 32.7168 49.3799C33.0416 49.4277 33.624 49.6187 33.2432 50.0246V50.0366Z" fill="var(--fill-0, #45BBC5)"/>
</g>
<defs>
<clipPath id="clip0_0_107">
<rect width="64" height="61.6296" fill="white"/>
</clipPath>
</defs>
</svg>
