<svg preserveAspectRatio="none" width="100%" height="100%" overflow="visible" style="display: block;" viewBox="0 0 13 13" fill="none" xmlns="http://www.w3.org/2000/svg">
<g id="line-md:heart">
<path id="Vector" d="M6.5 4.33333C6.5 4.33333 6.5 4.33333 6.08833 3.79167C5.61167 3.16333 4.9075 2.70833 4.0625 2.70833C2.71375 2.70833 1.625 3.79708 1.625 5.14583C1.625 5.64958 1.77667 6.11542 2.03667 6.5C2.47542 7.15542 6.5 11.375 6.5 11.375M6.5 4.33333C6.5 4.33333 6.5 4.33333 6.91167 3.79167C7.38833 3.16333 8.0925 2.70833 8.9375 2.70833C10.2863 2.70833 11.375 3.79708 11.375 5.14583C11.375 5.64958 11.2233 6.11542 10.9633 6.5C10.5246 7.15542 6.5 11.375 6.5 11.375" stroke="var(--stroke-0, #51C2CC)" stroke-width="1.08333" stroke-linecap="round" stroke-linejoin="round"/>
</g>
</svg>
