<svg preserveAspectRatio="none" width="100%" height="100%" overflow="visible" style="display: block;" viewBox="0 0 353.8 353.8" fill="none" xmlns="http://www.w3.org/2000/svg">
<g id="Laag_1-2">
<path id="Vector" d="M176.9 353.8C274.599 353.8 353.8 274.599 353.8 176.9C353.8 79.2008 274.599 0 176.9 0C79.2008 0 0 79.2008 0 176.9C0 274.599 79.2008 353.8 176.9 353.8Z" fill="var(--fill-0, white)"/>
<path id="Vector_2" d="M247.777 14.7478C245.062 15.3347 242.348 16.2152 239.78 17.3158C234.35 19.6637 229.288 22.7453 224.738 26.5607C220.263 30.3026 216.227 34.6316 212.852 39.4008C209.477 44.1699 206.982 49.0859 205.515 54.0752C204.781 56.3497 204.048 58.6976 203.461 61.0455C202.727 63.9804 202.213 66.9153 201.993 69.9235C201.626 73.4454 201.333 77.701 201.039 82.7636C200.819 87.8263 200.599 94.283 200.452 102.207C200.306 110.131 200.232 119.743 200.085 131.042C199.939 142.342 199.865 155.842 199.865 171.397C199.865 195.83 199.865 215.347 199.645 230.021C199.498 244.696 199.278 256.509 198.912 265.313C198.545 274.118 197.884 280.941 197.004 285.857C196.123 290.92 194.876 295.836 193.409 300.752C190.62 309.263 185.264 316.894 177.193 323.571C169.122 330.247 159.511 333.549 148.211 333.549C140.434 333.549 133.684 331.862 128.034 328.486C122.385 325.111 117.689 320.416 113.873 314.546C110.131 308.676 107.343 301.632 105.582 293.415C103.821 285.27 102.941 276.246 102.941 266.487C102.941 258.049 104.041 249.612 106.316 241.467C108.591 233.323 111.746 225.986 115.708 219.456C119.743 212.926 124.659 207.496 130.382 203.24C136.178 198.985 142.415 196.49 149.239 195.683C154.521 194.949 157.163 193.775 157.163 192.308C157.163 190.767 155.989 189.447 153.568 188.126C150.779 186.732 147.845 185.484 144.91 184.531C141.314 183.357 137.573 182.476 133.831 181.889C130.235 181.302 126.567 181.009 122.898 180.935C110.865 180.935 100.079 183.21 90.6878 187.686C81.2962 192.235 73.372 198.104 66.9153 205.368C60.6053 212.559 55.6893 220.85 52.3876 229.874C49.0859 238.899 47.4717 247.851 47.4717 256.582C47.4717 266.414 49.6728 276.833 54.0752 288.058C58.4775 299.211 65.1543 309.63 74.0324 319.315C75.4264 320.856 76.8939 322.323 78.4347 323.791C31.1831 292.241 0 238.239 0 176.9C0 79.1684 79.1684 0 176.9 0C201.333 0 225.472 4.9893 247.777 14.7478Z" fill="var(--fill-0, #51C2CC)"/>
<path id="Vector_3" d="M353.799 176.898C353.799 274.556 274.631 353.798 176.899 353.798C170.736 353.798 164.646 353.505 158.483 352.844C171.25 352.477 183.136 350.35 194.215 346.314C206.028 342.059 216.961 335.602 226.426 327.311C235.817 319.02 243.668 308.968 249.978 297.155C256.288 285.342 260.544 272.062 262.818 257.241C263.552 251.958 264.212 243.593 264.726 232.147C265.239 220.701 265.459 208.228 265.459 194.654C265.459 184.602 265.239 174.477 264.872 164.352C264.506 154.153 264.139 144.468 263.772 135.15C263.405 125.831 263.112 117.1 262.818 108.956C262.598 100.811 262.451 93.4742 262.451 86.9441C262.451 71.9029 263.038 59.7231 264.139 50.4049C265.239 41.0866 267 33.9695 269.201 28.9069C269.568 28.0998 269.935 27.3661 270.229 26.7057C320.415 57.9622 353.799 113.578 353.799 176.972V176.898Z" fill="var(--fill-0, #51C2CC)"/>
</g>
</svg>
