<svg preserveAspectRatio="none" width="100%" height="100%" overflow="visible" style="display: block;" viewBox="0 0 75.88 75.0308" fill="none" xmlns="http://www.w3.org/2000/svg">
<g id="Ebene_1" clip-path="url(#clip0_0_63)">
<path id="Vector" d="M75.8456 11.1548C75.5931 14.1501 73.9979 16.4453 71.9552 18.4995C68.214 22.2293 64.4842 25.9819 60.7315 29.7117C59.0445 31.3872 57.0592 32.5922 54.8213 33.1315C54.0983 33.3037 53.3524 33.3955 52.5835 33.4185C52.4343 33.4299 52.2851 33.4299 52.1245 33.4299C51.6539 33.4299 51.1949 33.3955 50.7473 33.3152C50.0702 33.2348 49.4161 33.0856 48.7849 32.8676C45.7552 31.8462 43.3223 29.4936 42.2206 26.3951C42.1288 26.1541 42.0484 25.9131 41.9796 25.6721C41.9337 25.4885 41.9796 25.3163 42.0943 25.1671V25.1557C42.4731 24.6737 43.5289 24.4327 43.9879 24.7999C44.0912 24.8573 44.16 24.9491 44.1945 25.0753C44.2978 25.4426 44.424 25.7868 44.5732 26.1311C46.3864 30.5494 51.4359 33.3611 56.0837 31.2495C58.0117 30.3773 59.4806 28.5985 60.9496 27.1181C64.2203 23.8474 67.5024 20.5996 70.7502 17.3175C73.0913 14.9534 74.1586 11.7057 73.3438 8.4235C72.3339 4.2921 68.409 1.1706 64.1055 1.50341C61.5349 1.6985 59.7216 3.16744 58.0002 4.88886L47.7062 15.1829C45.9847 16.8929 44.5961 18.6028 44.0912 21.0472C44.0568 21.162 44.0338 21.2767 44.0108 21.3915C43.8617 22.2866 41.6009 22.6194 41.773 21.6095C41.7845 21.5177 41.8074 21.4259 41.8304 21.3456C42.4616 18.2126 44.3781 16.1469 46.5585 13.9665L53.6967 6.82832C55.005 5.50857 56.2788 4.11996 57.6674 2.89202C60.8578 0.0574181 65.563 -0.814766 69.5222 0.837793C73.5962 2.53626 76.1898 6.73651 75.8341 11.1548H75.8456Z" fill="var(--fill-0, #45BBC5)"/>
<path id="Vector_2" d="M72.024 9.96146C72.1388 12.2682 71.0026 14.0125 69.4533 15.5618C66.263 18.7522 63.0841 21.931 59.9052 25.1214C58.9412 26.0739 58.0117 27.1527 56.9444 28.0019C54.0868 30.2397 49.9554 30.0905 47.3274 27.6002C47.3045 27.5773 47.2815 27.5543 47.27 27.5314C46.788 26.9117 48.498 26.1657 49.2439 26.5789C49.2554 26.5789 49.2554 26.5903 49.2554 26.5903C49.3013 26.6018 49.3472 26.6362 49.3816 26.6707C50.1276 27.3822 51.1031 27.8871 52.113 28.0478C52.8933 28.1855 53.7081 28.1166 54.4656 27.7724C54.5459 27.7494 54.6147 27.7035 54.6951 27.6691C55.2918 27.3592 55.7394 26.9117 56.1984 26.4526C57.5182 25.1329 58.8494 23.8131 60.1692 22.4819C62.7857 19.8653 65.4138 17.2603 68.0303 14.6322C69.7747 12.8649 70.36 10.2828 69.132 8.02199C67.6286 5.29068 64.0596 4.39554 61.7299 6.59896C59.3085 8.8827 57.0018 11.3156 54.6492 13.6797L50.4833 17.8341C49.3702 18.9587 48.3144 19.9457 47.9012 21.5408C47.8897 21.5638 47.8897 21.5982 47.8783 21.6327C47.6602 22.5278 45.3994 22.8262 45.629 21.8507C45.6863 21.5982 45.7667 21.3457 45.847 21.1162C46.5011 19.326 47.8324 18.121 49.1865 16.7783C51.0801 14.8847 52.9737 12.9911 54.8557 11.0976C56.3247 9.64012 57.7821 8.18266 59.2396 6.72519C60.8004 5.16444 62.5447 3.98241 64.84 3.84469C68.4664 3.63812 71.8404 6.23172 72.024 9.96146Z" fill="var(--fill-0, #45BBC5)"/>
<path id="Vector_3" d="M34.1299 53.1687C34.107 53.3753 34.0726 53.5704 34.0267 53.7655C33.3955 56.8525 31.456 58.9182 29.287 61.0872C26.9115 63.4628 24.5244 65.8498 22.1489 68.2254C20.8406 69.5451 19.5668 70.9452 18.1782 72.1731C15.0337 74.9274 10.4088 75.8225 6.49549 74.2962C2.32966 72.6666 -0.332794 68.4319 0.0344409 63.9792C0.275439 60.9839 1.89357 58.7117 3.93632 56.6689C7.67753 52.9277 11.4073 49.175 15.1599 45.4453C16.8125 43.7927 18.8093 42.5992 21.0357 42.0713C21.7587 41.8877 22.5047 41.7844 23.2735 41.7615C23.4342 41.7615 23.5949 41.7615 23.767 41.7615C24.2146 41.7615 24.6507 41.7959 25.0868 41.8533H25.0983C25.7753 41.9336 26.4295 42.0828 27.0721 42.3009C30.0904 43.2878 32.5462 45.6174 33.6479 48.7275C33.7168 48.8996 33.7742 49.0718 33.8316 49.2439C34.0726 50.0472 31.8577 50.6555 31.6052 49.8292C31.5249 49.5423 31.4216 49.2668 31.3068 48.9914C29.4936 44.5731 24.4097 41.6582 19.7619 43.7927C17.8339 44.6764 16.3649 46.4782 14.896 47.9471C11.6253 51.2178 8.34314 54.4655 5.0954 57.7477C2.75428 60.1118 1.70995 63.4169 2.51328 66.699C3.53465 70.8304 7.448 74.0093 11.7745 73.6995C14.3566 73.5044 16.1584 72.0125 17.8798 70.2796L22.9866 65.1727C24.7081 63.4513 26.441 61.7184 28.1738 59.997C29.9067 58.2641 31.2724 56.5083 31.7773 54.0753C31.8232 53.8688 31.8577 53.6507 31.8921 53.4327C31.9265 53.2261 32.0987 53.0425 32.3397 52.9162C32.7758 52.6523 33.4299 52.5605 33.8086 52.7097C34.0267 52.7785 34.1644 52.9392 34.1299 53.1802V53.1687Z" fill="var(--fill-0, #45BBC5)"/>
<path id="Vector_4" d="M30.251 53.1459C30.1822 53.4442 30.1018 53.7311 29.9986 53.9951C29.3329 55.7509 27.9902 56.9559 26.6705 58.2872C24.7769 60.1692 22.8834 62.0628 21.0013 63.9564L16.6174 68.3288C15.0567 69.8895 13.3008 71.0371 11.0171 71.1863C7.40212 71.4273 3.97076 68.8452 3.84452 65.0925C3.76419 62.8202 4.9118 61.1218 6.43812 59.5954C9.617 56.4166 12.7959 53.2262 15.9862 50.0473C16.9388 49.0833 17.8683 48.0046 18.9471 47.1783C19.7045 46.6045 20.5423 46.1799 21.4259 45.9274H21.4374C21.9653 45.7553 22.5161 45.652 23.067 45.6175C25.0409 45.4798 27.0377 46.0995 28.5411 47.5226C29.1149 48.1079 27.3017 48.8882 26.5902 48.5095C26.5443 48.4866 26.5098 48.4521 26.4754 48.4177C25.718 47.7062 24.754 47.1783 23.7326 46.9947C22.9522 46.857 22.1374 46.9143 21.38 47.2701C21.2882 47.2931 21.1964 47.339 21.1161 47.3849C20.5423 47.6947 20.0947 48.1538 19.6471 48.6013C18.3274 49.9211 16.9961 51.2523 15.6764 52.5721C13.0598 55.1886 10.4318 57.7937 7.81526 60.4332C6.08236 62.1776 5.53151 64.7367 6.67912 66.986C8.11363 69.8206 11.7745 70.8305 14.1501 68.5697C16.56 66.2631 18.8667 63.8416 21.2193 61.489L25.3852 57.3232C26.5328 56.187 27.5542 55.2001 27.9673 53.559C27.9902 53.5131 28.0017 53.4557 28.0132 53.3983C28.1853 52.595 30.4347 52.2622 30.2396 53.1459H30.251Z" fill="var(--fill-0, #45BBC5)"/>
<path id="Vector_5" d="M54.9132 32.6956C54.8902 32.8448 54.8558 32.9825 54.8214 33.1317C54.1557 36.0466 52.3196 38.032 50.2653 40.0862C46.7307 43.6094 43.219 47.1669 39.6729 50.6786C38.0548 52.2738 36.0809 53.2952 34.0267 53.7657C33.2807 53.9493 32.5233 54.0411 31.7773 54.0641C31.1806 54.087 30.5838 54.0641 29.9985 53.9952C29.31 53.9149 28.6329 53.7772 27.9787 53.5591C25.0523 52.664 22.562 50.5524 21.3915 47.2702C21.2997 47.0178 21.2078 46.7653 21.139 46.5013C21.0816 46.2833 21.2078 46.0882 21.4259 45.9275H21.4374C21.862 45.6062 22.6309 45.4455 23.067 45.6177C23.2162 45.6751 23.3309 45.7669 23.3654 45.9161C23.4686 46.2833 23.5949 46.639 23.7441 46.9948C25.1786 50.4606 28.6099 53.0542 32.3397 52.905C32.8217 52.8935 33.3151 52.8247 33.8086 52.6984C34.107 52.6296 34.4168 52.5378 34.7267 52.423C36.5629 51.7459 37.8252 50.3458 39.168 49.0146C40.8549 47.3276 42.5419 45.6292 44.2289 43.9422C47.2471 40.9239 51.5621 37.7565 52.5835 33.4186C52.6294 33.2694 52.6638 33.1202 52.6868 32.971C52.8245 32.1906 55.0624 31.8234 54.9132 32.6956Z" fill="var(--fill-0, #45BBC5)"/>
<path id="Vector_6" d="M54.6263 28.2198C54.8673 28.9887 52.6524 29.6084 52.3999 28.8166C52.3196 28.5526 52.2163 28.3002 52.113 28.0477C50.2883 23.7556 45.3536 20.8522 40.7746 22.8375C39.0647 23.572 37.8482 24.9491 36.5629 26.2345C34.8529 27.9444 33.143 29.6543 31.4445 31.3643C28.4493 34.3595 24.249 37.4466 23.2735 41.7616C23.2391 41.8993 23.2047 42.0485 23.1817 42.1977C23.044 42.9781 20.8062 43.3453 20.9554 42.4731C20.9783 42.3354 21.0013 42.1977 21.0357 42.0715C21.6554 39.1795 23.4342 37.1941 25.4655 35.1629C29.0231 31.6053 32.5692 28.0362 36.1383 24.4901C37.7564 22.872 39.7532 21.8276 41.8419 21.3456C42.5878 21.1735 43.3453 21.0702 44.1027 21.0473C44.688 21.0243 45.2732 21.0473 45.847 21.1161C46.5471 21.185 47.2357 21.3342 47.9013 21.5407C50.7818 22.4244 53.2606 24.5016 54.4656 27.7723C54.523 27.91 54.5804 28.0706 54.6263 28.2198Z" fill="var(--fill-0, #45BBC5)"/>
<path id="Vector_7" d="M52.113 28.0476C51.1031 27.8869 50.1277 27.382 49.3817 26.6705C49.3473 26.636 49.3014 26.6016 49.2555 26.5901C49.2555 26.5901 49.2555 26.5787 49.244 26.5787C47.7865 25.2589 45.8815 24.6851 43.9994 24.7999C43.5404 24.4326 42.4846 24.6736 42.1059 25.1556C42.1059 25.1442 42.1059 25.1671 42.1059 25.1671C41.4862 25.3507 40.8779 25.6376 40.3156 25.9934C39.2024 26.7049 38.2958 27.7722 37.3777 28.6903L28.0591 38.0089C26.8656 39.2024 25.718 40.2926 25.1098 41.8419H25.0983C24.6622 41.7845 24.2261 41.7501 23.7785 41.7501C23.6064 41.7501 23.4457 41.7501 23.2851 41.7501C24.2605 37.4351 28.4608 34.348 31.4561 31.3527C33.1545 29.6428 34.8645 27.9328 36.5744 26.2229C37.8597 24.9376 39.0762 23.5604 40.7861 22.826C45.3651 20.8406 50.2998 23.7441 52.1245 28.0361L52.113 28.0476Z" fill="var(--fill-0, white)"/>
<path id="Vector_8" d="M70.7617 17.3175C67.514 20.5997 64.2318 23.8474 60.9611 27.1181C59.4922 28.5985 58.0232 30.3773 56.0953 31.2495C51.4474 33.3611 46.398 30.5495 44.5847 26.1312C45.5831 26.3033 46.5242 26.8312 47.2701 27.5312C47.2816 27.5542 47.3046 27.5772 47.3275 27.6001C49.9555 30.0904 54.0869 30.2396 56.9445 28.0018C58.0118 27.1525 58.9413 26.0738 59.9053 25.1213C63.0842 21.9309 66.2631 18.752 69.4534 15.5617C71.0027 14.0124 72.1389 12.268 72.0241 9.96134C71.8405 6.2316 68.4665 3.638 64.8401 3.84457C62.5448 3.98229 60.8005 5.16433 59.2397 6.72508C57.7822 8.18254 56.3248 9.64001 54.8558 11.0975C52.9738 12.991 51.0802 14.8846 49.1866 16.7781C47.8325 18.1208 46.5012 19.3258 45.8471 21.1161C45.2733 21.0473 44.688 21.0243 44.1027 21.0473C44.6077 18.6028 45.9963 16.8929 47.7177 15.183L58.0118 4.8889C59.7332 3.16748 61.5464 1.69854 64.1171 1.50345C68.4206 1.17064 72.3454 4.29214 73.3553 8.42354C74.1701 11.7057 73.1028 14.9534 70.7617 17.3175Z" fill="var(--fill-0, white)"/>
<path id="Vector_9" d="M47.3274 27.577C47.3274 27.577 47.293 27.5426 47.27 27.5311C46.5241 26.8311 45.5831 26.3032 44.5846 26.131C43.8157 25.9818 43.0239 26.0392 42.2665 26.372C42.255 26.3835 42.232 26.3835 42.2206 26.395C41.5894 26.6819 41.0844 27.1524 40.6024 27.6344C38.1121 30.1017 35.6448 32.5806 33.1774 35.0594C31.9265 36.2988 30.6871 37.5497 29.4362 38.7892C28.3804 39.845 27.4738 40.786 27.0721 42.2894C27.0492 42.3353 27.0377 42.3927 27.0262 42.45C26.8426 43.2189 24.6047 43.5517 24.7998 42.714C24.8802 42.4041 24.972 42.1172 25.0867 41.8418H25.0982C25.7065 40.2925 26.8541 39.2023 28.0476 38.0088L37.3662 28.6902C38.2843 27.7721 39.1909 26.7048 40.3041 25.9933C40.8664 25.6375 41.4746 25.3506 42.0943 25.167V25.1555C42.714 24.949 43.3452 24.8342 43.9879 24.7998C45.87 24.685 47.775 25.2588 49.2325 26.5786C49.2439 26.5786 49.2439 26.5901 49.2439 26.5901C49.2898 26.613 49.3243 26.6589 49.3702 26.6933C49.9899 27.2786 47.8898 28.1164 47.316 27.577H47.3274Z" fill="var(--fill-0, #45BBC5)"/>
<path id="Vector_10" d="M31.7773 54.064C31.2724 56.497 29.9067 58.2528 28.1738 59.9857C26.4409 61.7071 24.708 63.44 22.9866 65.1614L17.8798 70.2683C16.1584 72.0012 14.3566 73.4931 11.7745 73.6882C7.44799 73.998 3.53464 70.8192 2.51326 66.6878C1.70994 63.4056 2.75426 60.1005 5.09539 57.7364C8.34313 54.4542 11.6253 51.2065 14.896 47.9358C16.3649 46.4669 17.8339 44.6651 19.7618 43.7815C24.4097 41.6469 29.4936 44.5618 31.3068 48.9801C30.2854 48.7965 29.31 48.2571 28.5525 47.5341C27.0492 46.0996 25.0523 45.4799 23.0784 45.6176C22.6424 45.4455 21.8735 45.6062 21.4488 45.916H21.4374C20.5537 46.18 19.7159 46.6046 18.9585 47.1784C17.8798 48.0047 16.9502 49.0834 15.9977 50.0474C12.8073 53.2263 9.62845 56.4166 6.44957 59.5955C4.92325 61.1219 3.77564 62.8203 3.85597 65.0926C3.98221 68.8453 7.41356 71.4274 11.0285 71.1864C13.3123 71.0372 15.0681 69.8896 16.6289 68.3288L21.0127 63.9564C22.8948 62.0629 24.7884 60.1693 26.6819 58.2873C28.0017 56.956 29.3444 55.751 30.01 53.9952C30.5953 54.064 31.192 54.087 31.7888 54.064H31.7773Z" fill="var(--fill-0, white)"/>
<path id="Vector_11" d="M52.5834 33.4185C51.5621 37.7565 47.2471 40.9239 44.2288 43.9421C42.5419 45.6291 40.8549 47.3275 39.1679 49.0145C37.8252 50.3458 36.5628 51.7458 34.7266 52.4229C34.4168 52.5377 34.1069 52.6295 33.8085 52.6984C33.4298 52.5492 32.7757 52.641 32.3396 52.9049C28.6099 53.0541 25.1785 50.4605 23.744 46.9947C24.7654 47.1784 25.7294 47.7063 26.4868 48.4178C26.5212 48.4522 26.5556 48.4866 26.6015 48.5096C29.0574 50.7359 32.7872 50.8966 35.5644 49.1178C36.6776 48.4063 37.5842 47.339 38.5023 46.4209L47.8209 37.1023C49.0029 35.9203 50.1505 34.8301 50.7473 33.3152C51.1948 33.3956 51.6539 33.43 52.1244 33.43C52.2851 33.43 52.4343 33.43 52.5834 33.4185Z" fill="var(--fill-0, white)"/>
<path id="Vector_12" d="M51.0801 32.3052C50.9998 32.661 50.8965 32.9938 50.7473 33.3151C50.1506 34.8299 49.003 35.9202 47.8209 37.1022L38.5023 46.4208C37.5842 47.3389 36.6776 48.4062 35.5644 49.1177C32.7872 50.8965 29.0575 50.7358 26.6016 48.5095C26.5557 48.4865 26.5213 48.4521 26.4868 48.4176C25.8786 47.8324 27.9443 46.9946 28.5411 47.5225C29.2985 48.257 30.274 48.7964 31.2953 48.98C32.0527 49.1292 32.8446 49.0718 33.602 48.739C33.6135 48.739 33.625 48.7275 33.6365 48.716C34.2791 48.4291 34.7726 47.9586 35.2546 47.4766C37.7449 45.0092 40.2123 42.5304 42.6911 40.0516C43.9305 38.8122 45.1699 37.5613 46.4208 36.3218C47.4652 35.2775 48.3718 34.3365 48.7734 32.8675C48.8079 32.7757 48.8308 32.6724 48.8538 32.5692C49.0259 31.8003 51.2637 31.456 51.0687 32.3052H51.0801Z" fill="var(--fill-0, #45BBC5)"/>
</g>
<defs>
<clipPath id="clip0_0_63">
<rect width="75.88" height="75.0308" fill="white"/>
</clipPath>
</defs>
</svg>
