<svg preserveAspectRatio="none" width="100%" height="100%" overflow="visible" style="display: block;" viewBox="0 0 72.17 62" fill="none" xmlns="http://www.w3.org/2000/svg">
<g id="Ebene_1" clip-path="url(#clip0_0_80)">
<path id="Vector" d="M47.3899 52.1276C47.4023 53.5414 46.5837 54.7941 45.3683 55.5258C44.4505 56.0964 43.2723 56.456 42.1188 56.5056C41.4119 56.5304 40.7173 56.4312 40.0848 56.1708C39.9236 56.0964 39.7748 56.0219 39.6259 55.9351C39.3407 55.7491 39.0802 55.5258 38.8322 55.2778C38.6709 55.1414 38.5097 54.9801 38.3485 54.8189C37.6663 54.1244 36.9718 53.4298 36.2773 52.7477C35.9176 52.388 35.5579 52.0283 35.1982 51.6687C35.0494 51.5198 34.8882 51.3586 34.7394 51.2098C34.1316 50.6021 33.5363 50.0067 32.9286 49.399C32.755 49.2254 33.4371 48.8409 34.0944 48.6301C34.5657 48.506 35.0122 48.444 35.1858 48.6177C36.3641 49.7959 37.5423 50.9741 38.7205 52.1524C39.3531 52.7849 39.9732 53.405 40.5933 54.0375C41.0274 54.4592 41.4491 54.9181 41.9824 55.2158C42.3173 55.4018 42.6769 55.5258 43.0614 55.5755C43.0862 55.5879 43.3219 55.5879 43.4211 55.5879C43.5203 55.5258 43.6815 55.4514 43.7187 55.4266C43.8428 55.3274 43.9668 55.2282 44.0784 55.1166C44.3017 54.8809 44.4753 54.6205 44.6241 54.3352C45.2443 53.1694 45.0954 51.7183 44.3265 50.6641C44.2397 50.5276 44.1404 50.4036 44.0288 50.292C43.0862 49.3122 42.1188 48.3448 41.139 47.3774C40.0972 46.3604 39.0554 45.331 38.026 44.3016C37.7408 44.0039 39.874 43.111 40.2833 43.5202C41.3375 44.5745 42.3793 45.6163 43.4459 46.6953C43.7063 46.9433 43.9792 47.2162 44.2396 47.4766C44.9342 48.1712 45.8148 48.8905 46.4845 49.7339C46.4969 49.7587 46.5217 49.7835 46.5465 49.8083C46.9558 50.3788 47.2783 50.9865 47.3651 51.6811C47.3899 51.8299 47.3899 51.9787 47.3899 52.1276Z" fill="var(--fill-0, #45BBC5)"/>
<path id="Vector_2" d="M42.2181 57.1012C42.3297 58.9243 41.1142 60.3382 39.5391 61.0948C38.1872 61.7521 36.4137 62.1118 34.9874 61.5413C34.5781 61.38 34.1936 61.1444 33.8588 60.8095C33.5859 60.5491 34.4169 60.2638 34.5781 60.2018C34.8634 60.0902 35.1982 60.0157 35.5083 59.9909C35.6075 59.9785 35.992 59.9289 36.1036 60.0282C36.2649 60.1894 36.4261 60.3258 36.6121 60.4374C36.7486 60.5367 36.9098 60.6235 37.071 60.6979C37.2198 60.7723 37.3687 60.8219 37.5175 60.8591C37.6167 60.8715 37.7159 60.8963 37.8028 60.9087C37.8276 60.9087 37.8648 60.9087 37.8896 60.9211H38.1128L38.1376 60.8963H38.1624L38.1748 60.8715C38.2369 60.8343 38.2989 60.7971 38.3733 60.7599C38.3981 60.7475 38.4105 60.7351 38.4105 60.7351C38.4353 60.7103 38.4601 60.6855 38.4849 60.6731C39.0058 60.2762 39.3903 59.7553 39.6259 59.1476C39.9484 58.3166 39.8988 57.3616 39.5515 56.5555C39.3903 56.1586 39.1546 55.7865 38.857 55.4764C38.795 55.4144 38.795 55.34 38.8322 55.278C38.9438 55.1044 39.3779 54.9431 39.5391 54.8811C39.5515 54.8811 39.5639 54.8687 39.5763 54.8687C39.874 54.7695 40.1964 54.6827 40.5065 54.6579C40.6057 54.6455 41.0026 54.5959 41.1018 54.6951C41.5979 55.2036 41.9576 55.8237 42.1188 56.5059C42.1684 56.6919 42.2056 56.9027 42.2181 57.1012Z" fill="var(--fill-0, #45BBC5)"/>
<path id="Vector_3" d="M53.033 48.32C52.6609 50.8997 49.7836 52.2639 47.3899 52.1275C47.3403 52.1275 47.2907 52.1275 47.241 52.1275C46.2488 52.0407 45.3187 51.6314 44.5993 50.9369C44.5125 50.8501 44.4133 50.7632 44.3265 50.664C44.0908 50.4284 43.8552 50.1927 43.6195 49.9447C42.8134 49.1509 42.0072 48.3448 41.2134 47.551C41.1638 47.5014 41.139 47.4394 41.139 47.3774C41.201 46.8937 42.9994 46.2487 43.4459 46.6952L45.9264 49.1757C46.1124 49.3618 46.2861 49.5478 46.4845 49.7338C46.4969 49.7586 46.5217 49.7835 46.5465 49.8083C47.1914 50.4284 47.886 50.9989 48.7914 51.0361C48.7914 51.0361 48.9402 51.0237 48.9774 51.0237H48.9898C48.9898 51.0237 49.0518 51.0113 49.0766 51.0113H49.151C49.151 51.0113 49.1634 50.9865 49.1758 50.9865C49.1882 50.9865 49.3371 50.9121 49.3619 50.8873C49.6223 50.726 49.982 50.3664 50.1804 50.0563C50.7137 49.2377 50.8254 48.1959 50.5525 47.2781C50.2176 46.1495 49.2378 45.3682 48.4317 44.5744C47.7247 43.8675 47.0178 43.1605 46.3109 42.4536C46.2737 42.4164 46.2488 42.3668 46.2364 42.3296C46.1744 41.8335 48.0844 41.1389 48.5433 41.5978C49.4611 42.5156 50.3789 43.4334 51.2967 44.3512C51.6067 44.6612 51.9292 44.9465 52.202 45.2813C52.6113 45.8023 52.8842 46.3852 53.0082 47.0177C53.0826 47.4394 53.095 47.8735 53.033 48.32Z" fill="var(--fill-0, #45BBC5)"/>
<path id="Vector_4" d="M54.4097 46.8192C53.926 46.9433 53.4671 47.0053 53.0082 47.0177C51.6439 47.0425 50.4161 46.5216 49.3743 45.4674C48.3201 44.4256 47.2782 43.3838 46.2364 42.3296C45.1946 41.3001 44.1652 40.2583 43.1358 39.2289C42.7017 38.7948 44.897 37.9267 45.3683 38.398C47.4767 40.5064 49.5851 42.6396 51.7183 44.748C52.202 45.2317 52.6981 45.6782 53.3927 45.8767C54.7073 46.2363 55.5507 44.9837 55.7863 43.8179C56.0592 42.4288 55.3895 41.3001 54.4593 40.37C52.6485 38.5592 50.8502 36.7484 49.0394 34.9501C46.4349 32.3456 43.8304 29.741 41.2258 27.1365C40.0352 25.9459 38.8446 24.7428 37.6415 23.5522C37.3811 23.2917 38.0756 22.8701 38.7701 22.684C39.167 22.5724 39.5639 22.5352 39.7872 22.6468C39.8244 22.6592 39.8492 22.684 39.874 22.7088L40.6057 23.4406L45.3311 28.1659C48.0596 30.8945 50.8006 33.6354 53.5291 36.364L56.3197 39.1545C56.4065 39.2413 56.4933 39.3282 56.5801 39.4026C57.039 39.8739 57.5103 40.3452 57.808 40.9281C57.8824 41.0397 57.932 41.1637 57.9816 41.2877C58.9986 43.9543 56.8282 46.1867 54.4097 46.8192Z" fill="var(--fill-0, #45BBC5)"/>
<path id="Vector_5" d="M34.7272 10.5298C34.7272 10.5298 34.6652 10.4678 34.628 10.4306C31.2545 7.09432 28.1167 3.67123 23.3541 2.35657C17.4381 0.731844 10.964 2.61702 6.8464 7.18113C2.80319 11.6584 1.42651 18.0333 3.17526 23.8005C4.40311 27.8685 7.15646 30.659 10.0586 33.5612L15.9126 39.4152C16.1235 39.626 16.3343 39.8369 16.5451 40.0477C17.3761 40.8911 15.2057 41.8585 14.4119 41.1267C14.3995 41.1267 14.3871 41.1143 14.3747 41.1019C11.6214 38.361 8.8804 35.62 6.13946 32.8667C2.39391 29.1335 0.0622404 24.5446 0.000227955 19.1743C-0.0741869 12.7002 3.38611 6.5362 8.83079 3.07591C14.1143 -0.28516 20.9356 -0.979699 26.7524 1.42638C30.5847 3.0139 33.3505 5.92848 36.2155 8.80586C36.4387 9.0291 36.6744 9.25235 36.8976 9.47559C37.741 10.319 35.4961 11.2988 34.7272 10.5298Z" fill="var(--fill-0, #45BBC5)"/>
<path id="Vector_6" d="M64.8898 31.093C62.1736 33.9083 59.3583 36.6493 56.5801 39.4026C56.4933 39.3282 56.4065 39.2414 56.3197 39.1546L53.5291 36.364C50.8006 33.6355 48.0596 30.8945 45.3311 28.166L40.6057 23.4406C43.9792 24.5941 47.7496 24.7057 51.1106 24.0112C52.6113 23.6887 52.14 21.9896 50.6517 22.312C46.0132 23.2794 40.5685 22.188 37.0338 18.8393C36.3517 18.1944 34.2681 19.199 35.037 20.0796C37.4555 22.8577 39.7996 26.6157 38.5345 30.4356C38.2493 31.2914 37.778 32.1596 37.195 32.8665C33.4867 29.1582 29.7908 25.4622 26.07 21.7539C28.3273 19.4967 30.5597 17.2518 32.817 15.007C34.7518 13.0722 36.6865 11.1498 38.6337 9.215C40.0724 7.77631 41.4863 6.2136 43.1358 4.99815C50.2176 -0.235694 60.3381 1.32702 65.8696 8.06156C71.4011 14.8209 70.9422 24.8297 64.8898 31.093Z" fill="var(--fill-0, white)"/>
<path id="Vector_7" d="M66.7005 32.0357C63.7736 35.0247 60.7722 37.9641 57.808 40.9282L57.5971 41.1391C56.8158 41.9204 54.5461 41.4492 55.6003 40.3825C55.9228 40.0601 56.2577 39.7376 56.5801 39.4027C59.3583 36.6494 62.1736 33.9084 64.8898 31.0931C70.9422 24.8298 71.4011 14.821 65.8696 8.06167C60.3381 1.32713 50.2176 -0.235585 43.1358 4.99826C41.4863 6.2137 40.0724 7.77642 38.6337 9.2151C36.6865 11.1499 34.7518 13.0723 32.817 15.0071C30.5597 17.2519 28.3273 19.4968 26.07 21.754C29.7908 25.4624 33.4867 29.1583 37.195 32.8666C37.778 32.1597 38.2493 31.2915 38.5345 30.4358C39.7996 26.6158 37.4555 22.8578 35.037 20.0797C34.2681 19.1991 36.3517 18.1945 37.0338 18.8394C40.5685 22.1881 46.0132 23.2795 50.6517 22.3121C52.14 21.9897 52.6113 23.6888 51.1106 24.0113C47.7496 24.7058 43.9792 24.5942 40.6057 23.4407C40.4321 23.3787 40.2709 23.3167 40.0972 23.2547C40.6925 24.4826 41.1142 25.7972 41.2259 27.1367C41.3375 28.2281 41.2507 29.3567 40.891 30.4978C40.3701 32.1721 39.2787 33.8588 37.8524 34.913C37.2819 35.3347 36.4757 35.3967 35.9672 34.8758C31.8124 30.721 27.6575 26.5662 23.4903 22.4113C23.2671 22.1757 23.3787 21.7044 23.5771 21.4936C26.8266 18.2441 30.076 14.9947 33.3255 11.7576C33.7596 11.3235 34.206 10.877 34.6277 10.4305C35.161 9.88484 35.6943 9.33913 36.2153 8.80582C39.4027 5.55637 42.7141 2.43095 47.1294 0.979858C55.4515 -1.77349 65.0386 1.58758 69.5655 9.1779C73.9436 16.5202 72.6537 25.9585 66.7005 32.0357Z" fill="var(--fill-0, #45BBC5)"/>
<path id="Vector_8" d="M24.0732 38.5345C23.2547 37.5423 21.9896 36.9842 20.7121 36.9594C19.2487 36.9346 17.872 37.4679 16.8302 38.4973C16.5201 38.7949 16.21 39.105 15.9124 39.4151C15.7636 39.5515 15.6271 39.6879 15.4783 39.8367C15.069 40.246 14.6969 40.6553 14.4117 41.1266C14.176 41.4987 13.99 41.8956 13.8784 42.3545C13.5683 43.6443 13.9652 45.0954 14.9078 46.038C15.9744 47.0798 17.3883 47.4643 18.765 47.3154C19.7447 47.2162 20.6997 46.8193 21.5059 46.1868C21.6671 46.0628 21.8408 45.914 21.9896 45.7651C22.6717 45.083 23.4655 44.4009 24.0484 43.6195C24.0608 43.6195 24.0732 43.5947 24.0856 43.5823C24.4453 43.0986 24.7181 42.5653 24.867 41.97C25.1522 40.7793 24.8422 39.4771 24.0732 38.5345ZM21.7291 43.4335C21.3199 43.8303 20.9106 44.252 20.5137 44.6613C20.3773 44.7977 20.2533 44.9342 20.1168 45.0582C20.03 45.145 19.9432 45.2318 19.8564 45.3186H19.844C19.844 45.3186 19.844 45.331 19.8316 45.331C19.8192 45.3434 19.8068 45.3558 19.8068 45.3558C19.7696 45.3807 19.7199 45.4303 19.7075 45.4303C19.6579 45.4675 19.6207 45.5047 19.5587 45.5295H19.5463L19.5215 45.5419C19.4719 45.5667 19.4099 45.6039 19.3603 45.6287C19.3603 45.6287 19.3355 45.6411 19.3231 45.6411C19.2735 45.6659 19.199 45.6783 19.1742 45.6907C19.1618 45.6907 19.1122 45.7031 19.075 45.7155H19.0502C18.951 45.7279 18.8642 45.7403 18.7774 45.7403H18.6161C18.6161 45.7403 18.4921 45.7279 18.4301 45.7155H18.4053C18.4053 45.7155 18.3681 45.7155 18.3433 45.7155C17.8472 45.5915 17.4627 45.3931 17.0906 45.0334C16.4333 44.3761 16.0984 43.4955 16.1976 42.6025C16.2473 42.0816 16.3713 41.7839 16.6441 41.325C16.6565 41.3126 16.6813 41.263 16.6813 41.2506L16.7558 41.1762C16.8178 41.077 16.9046 41.0026 16.979 40.9158C17.0162 40.8786 17.0658 40.8413 17.103 40.7917L18.4053 39.4895C18.5293 39.3655 18.6657 39.229 18.7898 39.105C18.827 39.0678 18.8642 39.0306 18.9014 39.0058C18.9138 38.9934 18.9262 38.981 18.9386 38.981C18.9882 38.9438 19.0874 38.8569 19.1122 38.8445C19.137 38.8197 19.1742 38.8073 19.199 38.7825C19.2114 38.7825 19.2238 38.7825 19.2362 38.7701C19.2487 38.7701 19.2486 38.7577 19.2611 38.7577C19.3231 38.7329 19.3603 38.7081 19.4223 38.6957C19.4843 38.6709 19.5835 38.6337 19.6579 38.6089H19.6827C19.6827 38.6089 19.8068 38.5965 19.8688 38.5841H19.9804C20.092 38.5841 20.2036 38.6089 20.3153 38.6213H20.3277C20.3277 38.6213 20.5385 38.6585 20.5757 38.6709C20.6873 38.7081 20.799 38.7577 20.9106 38.8073C20.9602 38.8321 21.0594 38.8818 21.0842 38.8942C21.2082 38.9562 21.3199 39.043 21.4439 39.1298C22.0888 39.6135 22.5477 40.5561 22.5601 41.3747C22.5601 42.218 22.2873 42.8505 21.7788 43.3839C21.754 43.4087 21.7415 43.4211 21.7167 43.4459L21.7291 43.4335Z" fill="var(--fill-0, #45BBC5)"/>
<path id="Vector_9" d="M22.5725 41.3621C22.5725 42.2055 22.2997 42.838 21.7911 43.3713C21.7663 43.3961 21.7539 43.4085 21.7291 43.4333C21.3199 43.8302 20.9106 44.2519 20.5137 44.6612C20.4641 44.6984 20.4269 44.7356 20.3773 44.7852C20.2904 44.872 20.2036 44.9712 20.1168 45.058C20.03 45.1449 19.9432 45.2317 19.8564 45.3185H19.844C19.844 45.3185 19.844 45.3309 19.8316 45.3309C19.8192 45.3433 19.8068 45.3557 19.8068 45.3557C19.7695 45.3805 19.7199 45.4301 19.7075 45.4301C19.6579 45.4673 19.6207 45.5045 19.5587 45.5293H19.5463L19.5215 45.5417C19.4719 45.5665 19.4099 45.6038 19.3603 45.6286C19.3603 45.6286 19.3355 45.641 19.3231 45.641C19.2734 45.6658 19.199 45.6782 19.1742 45.6906C19.1618 45.6906 19.1122 45.703 19.075 45.7154H19.0502C18.951 45.7278 18.8642 45.7402 18.7773 45.7402H18.6161C18.6161 45.7402 18.4921 45.7278 18.4301 45.7154H18.4053C18.4053 45.7154 18.3681 45.7154 18.3433 45.7154C17.8472 45.5913 17.4627 45.3929 17.0906 45.0332C16.4333 44.3759 16.0984 43.4953 16.1976 42.6023C16.2472 42.0814 16.3713 41.7838 16.6441 41.3249C16.6565 41.3125 16.6813 41.2629 16.6813 41.2505L16.7557 41.1761C16.8178 41.0768 16.9046 41.0024 16.979 40.9156C17.0162 40.8784 17.0658 40.8412 17.103 40.7916L18.4053 39.4893C18.5293 39.3653 18.6657 39.2289 18.7897 39.1049C18.827 39.0676 18.8642 39.0304 18.9014 39.0056C18.9138 38.9932 18.9262 38.9808 18.9386 38.9808C18.9882 38.9436 19.0874 38.8568 19.1122 38.8444C19.137 38.8196 19.1742 38.8072 19.199 38.7824C19.2114 38.7824 19.2238 38.7824 19.2362 38.77C19.2486 38.77 19.2486 38.7576 19.261 38.7576C19.3231 38.7328 19.3603 38.708 19.4223 38.6956C19.4843 38.6708 19.5835 38.6336 19.6579 38.6087H19.6827C19.6827 38.6087 19.8068 38.5963 19.8688 38.5839H19.9804C20.092 38.5839 20.2036 38.6087 20.3153 38.6212H20.3277C20.3277 38.6212 20.5385 38.6584 20.5757 38.6708C20.6873 38.708 20.799 38.7576 20.9106 38.8072C20.9602 38.832 21.0594 38.8816 21.0842 38.894C21.2082 38.956 21.3199 39.0428 21.4439 39.1297C22.0888 39.6134 22.5477 40.5559 22.5601 41.3745L22.5725 41.3621Z" fill="var(--fill-0, white)"/>
<path id="Vector_10" d="M28.9722 43.4456C28.1536 42.4658 26.8762 41.9201 25.6111 41.9201C25.3631 41.9201 25.115 41.9325 24.867 41.9698C23.7135 42.1062 22.6345 42.5775 21.7911 43.3712C21.7663 43.396 21.7539 43.4084 21.7291 43.4332C21.3199 43.8301 20.9106 44.2518 20.5137 44.6611C20.4641 44.6983 20.4269 44.7355 20.3773 44.7851C20.2905 44.8719 20.2036 44.9712 20.1168 45.058C20.03 45.1448 19.9432 45.2316 19.8564 45.3184C19.3603 45.8889 18.9634 46.4967 18.7773 47.2656C18.7773 47.278 18.7649 47.3028 18.7649 47.3152C18.4797 48.5803 18.8642 49.9818 19.7944 50.9119C20.8486 51.9413 22.2872 52.3134 23.6639 52.1398C24.8546 51.991 26.008 51.4576 26.8638 50.6019C26.8638 50.6019 26.872 50.5977 26.8886 50.5895C27.025 50.453 27.149 50.329 27.2854 50.1926C27.6823 49.8081 28.104 49.4236 28.4761 49.0144C28.5133 48.9772 28.5381 48.9399 28.5753 48.9027H28.5877L28.6001 48.8779H28.6125C29.1334 48.2702 29.5675 47.6129 29.7535 46.8439C29.7659 46.8067 29.7659 46.7819 29.7659 46.7447C30.0264 45.5913 29.7039 44.351 28.9722 43.4456ZM26.839 48.171L26.8018 48.2082C26.7645 48.2578 26.7149 48.3074 26.6653 48.357C26.6653 48.3694 26.6529 48.3818 26.6405 48.3942C26.2312 48.7911 25.822 49.2004 25.4127 49.6097C25.239 49.7833 25.0654 49.9693 24.8794 50.143C24.8546 50.1678 24.8422 50.1926 24.8174 50.205C24.7677 50.2546 24.7305 50.2794 24.6809 50.3414H24.6685C24.6685 50.3414 24.6437 50.3662 24.6189 50.3786C24.5693 50.4158 24.5073 50.453 24.4577 50.4903C24.4577 50.4903 24.4535 50.4985 24.4453 50.5151H24.4329L24.3957 50.5399C24.3585 50.5523 24.3089 50.5647 24.2592 50.5895C24.2468 50.6019 24.2344 50.6019 24.222 50.6143C24.1724 50.6391 24.1228 50.6391 24.0856 50.6515C24.0856 50.6515 24.0112 50.6763 23.9616 50.6763C23.8748 50.6887 23.8128 50.7011 23.7383 50.7011H23.6887C23.6267 50.7011 23.5647 50.7011 23.5275 50.6887H23.4159L23.4035 50.6763C23.3539 50.6763 23.2546 50.6515 23.2422 50.6515C22.8082 50.5399 22.3741 50.3042 21.9896 49.9321C21.3323 49.2872 20.985 48.3694 21.0842 47.464C21.1338 46.968 21.2578 46.5959 21.5059 46.1866C21.5059 46.1742 21.5183 46.1742 21.5183 46.1618C21.6671 45.9385 21.7663 45.8393 21.9772 45.6285L23.2794 44.3262C23.4035 44.1898 23.5399 44.0658 23.6763 43.9293C23.7259 43.8797 23.7631 43.8425 23.8128 43.7929C23.8128 43.7929 23.821 43.7888 23.8376 43.7805C23.8376 43.7805 23.8624 43.7557 23.8748 43.7433C23.912 43.7185 23.9492 43.6813 23.9864 43.6689C24.0112 43.6565 24.036 43.6441 24.0484 43.6193C24.0732 43.6193 24.098 43.5945 24.1228 43.5697H24.1352C24.1352 43.5697 24.2344 43.5201 24.2965 43.5077H24.3089C24.3089 43.5077 24.4701 43.4456 24.5445 43.4208H24.5693C24.5693 43.4208 24.6933 43.4084 24.7553 43.396H24.867C24.867 43.396 25.0282 43.4208 25.1026 43.4208C25.5863 43.5201 25.8964 43.6193 26.3305 43.9666C26.9878 44.4999 27.4467 45.4052 27.4591 46.2734C27.4715 46.7075 27.3723 47.2284 27.211 47.5633C27.1614 47.6625 27.1118 47.7617 27.0622 47.8485C26.9878 47.9602 26.9134 48.0718 26.839 48.171Z" fill="var(--fill-0, #45BBC5)"/>
<path id="Vector_11" d="M27.4591 46.2739C27.4715 46.708 27.3723 47.2289 27.211 47.5638C27.1614 47.663 27.1118 47.7622 27.0622 47.8491C26.901 47.9731 26.7521 48.1095 26.6033 48.2459C26.1444 48.6924 25.6979 49.1513 25.2514 49.5978C24.9662 49.8831 24.6933 50.1807 24.4577 50.4908C24.4577 50.4908 24.4536 50.4991 24.4453 50.5156H24.4329L24.3957 50.5404C24.3585 50.5528 24.3089 50.5652 24.2592 50.59C24.2468 50.6024 24.2344 50.6024 24.222 50.6148C24.1724 50.6396 24.1228 50.6396 24.0856 50.652C24.0856 50.652 24.0112 50.6768 23.9616 50.6768C23.8748 50.6892 23.8128 50.7016 23.7383 50.7016H23.6887C23.6267 50.7016 23.5647 50.7016 23.5275 50.6892H23.4159L23.4035 50.6768C23.3539 50.6768 23.2546 50.652 23.2422 50.652C22.8082 50.5404 22.3741 50.3047 21.9896 49.9327C21.3323 49.2877 20.985 48.37 21.0842 47.4646C21.1338 46.9685 21.2578 46.5964 21.5059 46.1871C21.6671 46.0631 21.8408 45.9143 21.9896 45.7654C22.6717 45.0833 23.4655 44.4012 24.0484 43.6198C24.0732 43.6198 24.098 43.595 24.1228 43.5702H24.1352C24.1352 43.5702 24.2344 43.5206 24.2965 43.5082H24.3089C24.3089 43.5082 24.4701 43.4462 24.5445 43.4214H24.5693C24.5693 43.4214 24.6933 43.409 24.7553 43.3966H24.867C24.867 43.3966 25.0282 43.4214 25.1026 43.4214C25.5863 43.5206 25.8964 43.6198 26.3305 43.9671C26.9878 44.5004 27.4467 45.4058 27.4591 46.2739Z" fill="var(--fill-0, white)"/>
<path id="Vector_12" d="M55.7864 43.8179C55.5507 44.9838 54.7073 46.2364 53.3927 45.8768C52.6981 45.6783 52.202 45.2318 51.7183 44.7481C49.5851 42.6397 47.4767 40.5065 45.3683 38.3981C44.897 37.9268 42.7017 38.7949 43.1358 39.229C44.1652 40.2584 45.1946 41.3002 46.2364 42.3297C46.2364 42.3669 46.2737 42.4165 46.3109 42.4537C47.0178 43.1606 47.7247 43.8676 48.4317 44.5745C49.2378 45.3683 50.2176 46.1496 50.5525 47.2782C50.8254 48.196 50.7137 49.2378 50.1804 50.0564C49.982 50.3665 49.6223 50.7261 49.3619 50.8874C49.3371 50.9122 49.1882 50.9866 49.1758 50.9866C49.1634 50.9866 49.1634 50.999 49.151 50.999C49.151 50.999 49.1262 50.999 49.0766 51.0114C49.0518 51.0114 49.0146 51.0238 48.9898 51.0238H48.9774L48.7914 51.0362C47.886 50.999 47.1914 50.4285 46.5465 49.8083C46.5217 49.7835 46.4969 49.7587 46.4845 49.7339C45.8148 48.8906 44.9342 48.1712 44.2396 47.4767C43.9792 47.2162 43.7063 46.9434 43.4459 46.6953C42.3793 45.6163 41.3375 44.5745 40.2833 43.5203C39.874 43.111 37.7408 44.004 38.026 44.3016C39.0554 45.3311 40.0972 46.3605 41.139 47.3775C41.139 47.4395 41.1638 47.5015 41.2134 47.5511C42.0072 48.3449 42.8134 49.151 43.6195 49.9448C43.8552 50.1928 44.0908 50.4285 44.3265 50.6641C45.0954 51.7183 45.2443 53.1694 44.6241 54.3353C44.4753 54.6205 44.3017 54.881 44.0784 55.1166C43.9668 55.2282 43.8428 55.3274 43.7187 55.4267C43.6815 55.4515 43.5203 55.5259 43.4211 55.5879C43.3219 55.5879 43.0862 55.5879 43.0614 55.5755C42.6769 55.5259 42.3173 55.4019 41.9824 55.2158C41.4491 54.9182 41.0274 54.4593 40.5933 54.0376C39.9732 53.4051 39.3531 52.7849 38.7205 52.1524C37.5423 50.9742 36.3641 49.7959 35.1858 48.6177C35.0122 48.4441 34.5657 48.5061 34.0944 48.6301C34.02 48.5185 33.9332 48.4069 33.8464 48.3076C33.0278 47.3154 31.7752 46.7325 30.4853 46.7077C30.2373 46.7077 30.0016 46.7077 29.766 46.7449C30.0264 45.5915 29.7039 44.3513 28.9722 43.4459C28.1536 42.4661 26.8762 41.9204 25.6111 41.9204C25.3631 41.9204 25.115 41.9328 24.867 41.97C25.1522 40.7793 24.8422 39.4771 24.0732 38.5345C23.2547 37.5423 21.9896 36.9842 20.7121 36.9594C19.2487 36.9346 17.872 37.4679 16.8302 38.4973C16.5201 38.7949 16.21 39.105 15.9124 39.4151L10.0584 33.5611C7.15624 30.6589 4.40289 27.8684 3.17504 23.8003C1.42629 18.0332 2.80297 11.6583 6.84617 7.18102C10.9638 2.61691 17.4379 0.731732 23.3539 2.35646C28.1164 3.67112 31.2543 7.0942 34.6277 10.4305C34.206 10.877 33.7596 11.3234 33.3255 11.7575C30.076 14.9946 26.8266 18.244 23.5771 21.4935C23.3787 21.7043 23.2671 22.1756 23.4903 22.4113C27.6575 26.5661 31.8124 30.7209 35.9672 34.8758C36.4757 35.3967 37.2819 35.3346 37.8524 34.913C39.2787 33.8588 40.3701 32.172 40.891 30.4977C41.2507 29.3567 41.3375 28.228 41.2258 27.1366C43.8304 29.7411 46.4349 32.3457 49.0394 34.9502C50.8502 36.7485 52.6485 38.5593 54.4593 40.3701C55.3895 41.3002 56.0592 42.4289 55.7864 43.8179Z" fill="var(--fill-0, white)"/>
<path id="Vector_13" d="M34.0944 48.6303C34.02 48.5187 33.9332 48.4071 33.8464 48.3079C33.0278 47.3157 31.7752 46.7327 30.4853 46.7079C30.2373 46.7079 30.0016 46.7079 29.766 46.7451C28.7738 46.8568 27.856 47.2288 27.0622 47.849C26.901 47.973 26.7522 48.1094 26.6033 48.2458C26.1444 48.6923 25.6979 49.1512 25.2515 49.5977C24.9662 49.883 24.6933 50.1806 24.4577 50.4907C24.4577 50.4907 24.4536 50.499 24.4453 50.5155H24.4329C24.0856 50.9868 23.8128 51.5077 23.6639 52.1278C23.3415 53.4301 23.7508 54.8936 24.6933 55.8238C25.7724 56.8656 27.1614 57.2749 28.5381 57.126C29.5303 57.0144 30.4977 56.6175 31.3163 55.9726C31.3163 55.9602 31.3287 55.9478 31.3287 55.9478C31.4899 55.8362 31.6263 55.7121 31.7752 55.5633C32.4325 54.906 33.189 54.261 33.7596 53.5169C33.7596 53.5045 33.7596 53.4921 33.7844 53.4921C34.1812 52.9836 34.4913 52.4131 34.6525 51.7557C34.6525 51.7557 34.6649 51.7185 34.6649 51.7061C34.7021 51.5449 34.7269 51.3837 34.7394 51.21C34.8262 50.3171 34.5905 49.3869 34.0944 48.6303ZM31.6511 53.0456C31.6511 53.0456 31.5767 53.1448 31.5147 53.2068C31.1054 53.6161 30.6961 54.013 30.2869 54.4223C30.1132 54.6083 29.9272 54.782 29.7536 54.968C29.7163 54.9928 29.6915 55.03 29.6543 55.0548C29.6047 55.092 29.5427 55.1416 29.4807 55.1788C29.4559 55.1912 29.4311 55.216 29.4063 55.2408C29.4063 55.2408 29.3939 55.2408 29.3691 55.2532C29.3567 55.2656 29.3319 55.2781 29.2947 55.2905C29.2451 55.3277 29.183 55.3525 29.1334 55.3773C29.121 55.3773 29.1086 55.3897 29.0962 55.3897C29.0466 55.4145 28.9722 55.4269 28.9474 55.4393C28.935 55.4393 28.8978 55.4517 28.8482 55.4641H28.8234C28.7241 55.4641 28.6373 55.4889 28.5505 55.4889H28.3893C28.3893 55.4889 28.2653 55.4765 28.2032 55.4765C28.1784 55.4765 28.042 55.4393 28.0296 55.4393C27.9304 55.4145 27.8436 55.3897 27.7568 55.3525C27.6947 55.3277 27.6451 55.3153 27.5831 55.2905C27.5707 55.2905 27.5707 55.278 27.5583 55.278C27.5583 55.278 27.5459 55.2656 27.5211 55.2532C27.2855 55.1168 26.9878 54.9184 26.8762 54.8068C26.2064 54.1246 25.8964 53.2688 25.9832 52.3759C26.0328 51.855 26.1444 51.5697 26.4297 51.1108C26.4669 51.0612 26.5289 50.9868 26.5413 50.9744C26.6157 50.8752 26.6901 50.7884 26.777 50.7139C26.8142 50.6767 26.8514 50.6395 26.8886 50.5899C27.025 50.4535 27.149 50.3295 27.2855 50.193C27.5831 49.8954 27.8932 49.5853 28.1908 49.2877C28.2901 49.2008 28.3769 49.1016 28.4761 49.0148C28.5133 48.9776 28.5381 48.9404 28.5753 48.9032H28.5877L28.6001 48.8784H28.6125C28.7117 48.804 28.7986 48.7295 28.9102 48.6551C28.9226 48.6551 28.9474 48.6303 28.9598 48.6179C28.997 48.6055 29.0218 48.5807 29.059 48.5683C29.1086 48.5435 29.1582 48.5187 29.2202 48.4939H29.2451C29.2451 48.4939 29.2575 48.4815 29.2699 48.4815C29.2699 48.4815 29.2699 48.4815 29.2947 48.4691C29.3319 48.4567 29.3939 48.4443 29.4311 48.4319C29.4435 48.4195 29.4683 48.4195 29.4931 48.4195C29.4931 48.4195 29.5303 48.4195 29.5427 48.4195C29.5923 48.4195 29.6295 48.4195 29.6791 48.4071C29.7039 48.4071 29.7412 48.4071 29.7784 48.3947C29.7784 48.3947 29.7866 48.3947 29.8032 48.3947C29.9396 48.4071 30.076 48.4195 30.2 48.4443C30.2373 48.4567 30.2621 48.4567 30.2745 48.4567C30.3117 48.4691 30.3365 48.4691 30.3737 48.4815C30.4977 48.5187 30.6093 48.5683 30.7334 48.6055C30.7334 48.6055 30.7333 48.6179 30.7582 48.6179H30.7706C30.7706 48.6179 30.8698 48.6799 30.8822 48.6923C31.0062 48.7667 31.1302 48.8412 31.2419 48.928C31.8744 49.4117 32.3457 50.3543 32.3457 51.148C32.3457 51.3713 32.3209 51.6069 32.2837 51.8302C32.2216 52.1154 32.2092 52.1526 32.0852 52.4131C32.0356 52.5247 31.9736 52.6239 31.924 52.7355H31.9116C31.9116 52.7355 31.9116 52.7603 31.8868 52.7727C31.862 52.81 31.8372 52.8596 31.8 52.8968C31.7628 52.9464 31.7256 52.9836 31.6759 53.0332C31.6759 53.0332 31.6677 53.0415 31.6511 53.058V53.0456Z" fill="var(--fill-0, #45BBC5)"/>
<path id="Vector_14" d="M32.3457 51.1354C32.3457 51.3587 32.3209 51.5943 32.2837 51.8176C32.2216 52.1028 32.2092 52.14 32.0852 52.4005C32.0356 52.5121 31.9736 52.6113 31.924 52.723H31.9116C31.9116 52.723 31.9116 52.7478 31.8868 52.7602C31.862 52.7974 31.8372 52.847 31.8 52.8842C31.7628 52.9338 31.7255 52.971 31.6759 53.0206C31.6759 53.0206 31.6677 53.0289 31.6511 53.0454C31.6511 53.0454 31.5519 53.1322 31.5023 53.1819C31.0558 53.6283 30.6093 54.0872 30.1504 54.5337C30.014 54.6826 29.8776 54.819 29.7535 54.9678C29.7163 54.9926 29.6915 55.0298 29.6543 55.0546C29.6047 55.0918 29.5427 55.1415 29.4807 55.1787C29.4559 55.1911 29.4311 55.2159 29.4063 55.2407C29.4063 55.2407 29.3939 55.2407 29.3691 55.2531C29.3567 55.2655 29.3319 55.2779 29.2947 55.2903C29.245 55.3275 29.183 55.3523 29.1334 55.3771C29.121 55.3771 29.1086 55.3895 29.0962 55.3895C29.0466 55.4143 28.9722 55.4267 28.9474 55.4391C28.935 55.4391 28.8978 55.4515 28.8482 55.4639H28.8234C28.7241 55.4639 28.6373 55.4887 28.5505 55.4887H28.3893C28.3893 55.4887 28.2653 55.4763 28.2032 55.4763C28.1784 55.4763 28.042 55.4391 28.0296 55.4391C27.9304 55.4143 27.8436 55.3895 27.7567 55.3523C27.6947 55.3275 27.6451 55.3151 27.5831 55.2903C27.5707 55.2903 27.5707 55.2779 27.5583 55.2779C27.5583 55.2779 27.5459 55.2655 27.5211 55.2531C27.2855 55.1166 26.9878 54.9182 26.8762 54.8066C26.2064 54.1244 25.8964 53.2687 25.9832 52.3757C26.0328 51.8548 26.1444 51.5695 26.4297 51.1106C26.4669 51.061 26.5289 50.9866 26.5413 50.9742C26.6157 50.875 26.6901 50.7882 26.777 50.7138C26.8142 50.6766 26.8514 50.6394 26.8886 50.5897C27.025 50.4533 27.149 50.3293 27.2855 50.1929C27.6823 49.8084 28.104 49.4239 28.4761 49.0146C28.5133 48.9774 28.5381 48.9402 28.5753 48.903H28.5877L28.6001 48.8782H28.6125C28.7117 48.8038 28.7986 48.7294 28.9102 48.655C28.9226 48.655 28.9474 48.6301 28.9598 48.6177C28.997 48.6053 29.0218 48.5805 29.059 48.5681C29.1086 48.5433 29.1582 48.5185 29.2202 48.4937H29.245C29.245 48.4937 29.2575 48.4813 29.2699 48.4813C29.2699 48.4813 29.2699 48.4813 29.2947 48.4689C29.3319 48.4565 29.3939 48.4441 29.4311 48.4317C29.4435 48.4193 29.4683 48.4193 29.4931 48.4193C29.4931 48.4193 29.5303 48.4193 29.5427 48.4193C29.5923 48.4193 29.6295 48.4193 29.6791 48.4069C29.7039 48.4069 29.7411 48.4069 29.7784 48.3945C29.7784 48.3945 29.7866 48.3945 29.8032 48.3945C29.9396 48.4069 30.076 48.4193 30.2 48.4441C30.2372 48.4565 30.2621 48.4565 30.2745 48.4565C30.3117 48.4689 30.3365 48.4689 30.3737 48.4813C30.4977 48.5185 30.6093 48.5681 30.7333 48.6053C30.7333 48.6053 30.7333 48.6177 30.7581 48.6177H30.7706C30.7706 48.6177 30.8698 48.6798 30.8822 48.6922C31.0062 48.7666 31.1302 48.841 31.2418 48.9278C31.8744 49.4115 32.3457 50.3541 32.3457 51.1479V51.1354Z" fill="var(--fill-0, white)"/>
<path id="Vector_15" d="M39.5391 54.8809C39.4151 54.2731 39.1422 53.7026 38.7453 53.2189C37.9392 52.2267 36.6617 51.6686 35.3843 51.6562C35.3223 51.6562 35.2602 51.6562 35.1982 51.6686C35.0122 51.6562 34.8386 51.6686 34.6649 51.7058C33.5487 51.8174 32.5193 52.2763 31.6759 53.0205C31.6759 53.0205 31.6677 53.0287 31.6511 53.0453C31.6511 53.0453 31.5519 53.1321 31.5023 53.1817C31.0558 53.6282 30.6093 54.0871 30.1504 54.5336C30.014 54.6824 29.8776 54.8188 29.7535 54.9677C29.7163 54.9925 29.6915 55.0297 29.6543 55.0545C29.1582 55.625 28.7365 56.2451 28.5505 57.0389C28.5381 57.0637 28.5381 57.1009 28.5381 57.1257C28.2528 58.3784 28.6621 59.7922 29.5799 60.71C31.0558 62.1363 33.2138 62.3223 34.9874 61.541C35.5827 61.2805 36.1408 60.9085 36.6121 60.4372C36.6245 60.4372 36.6369 60.4372 36.6493 60.4124C37.7655 59.3085 39.1546 58.2295 39.5391 56.6296C39.5515 56.6048 39.5515 56.58 39.5515 56.5552C39.6011 56.3567 39.6259 56.1459 39.6259 55.9351C39.6507 55.5754 39.6259 55.2157 39.5391 54.8809ZM36.4137 58.1427C36.0044 58.552 35.5951 58.9489 35.1982 59.3581C35.0122 59.5442 34.8386 59.7178 34.6525 59.9039C34.6277 59.9163 34.6153 59.9411 34.5905 59.9535C34.5905 59.9659 34.5657 59.9783 34.5409 60.0031C34.5409 60.0031 34.5409 60.0155 34.5161 60.0279C34.4913 60.0651 34.4169 60.1147 34.3921 60.1271C34.3425 60.1643 34.2804 60.2015 34.2308 60.2263C34.2184 60.2387 34.206 60.2387 34.206 60.2511C34.1812 60.2635 34.1688 60.2759 34.1688 60.2759C34.1192 60.2759 34.082 60.3007 34.0324 60.3255C34.02 60.3255 34.02 60.3379 34.0076 60.3503C34.0076 60.3503 33.896 60.3751 33.8712 60.3876C33.8588 60.3876 33.7967 60.4124 33.7471 60.4124C33.6603 60.4248 33.5859 60.4372 33.4991 60.4496H33.4619C33.4619 60.4496 33.3875 60.4372 33.3751 60.4372H33.3131C33.251 60.4372 33.189 60.4372 33.127 60.4124H33.1022C33.1022 60.4124 33.065 60.4124 33.0278 60.4C32.5689 60.2635 32.1596 60.0775 31.7875 59.7054C31.1302 59.0481 30.7829 58.1551 30.8822 57.2621C30.9318 56.7412 31.0558 56.4064 31.3287 55.9723C31.3287 55.9599 31.3411 55.9475 31.3411 55.9475C31.4403 55.7986 31.4899 55.749 31.6635 55.563C31.7007 55.5258 31.7379 55.4762 31.7875 55.439C32.2216 55.0049 32.6557 54.5708 33.0898 54.1367L33.5859 53.6406C33.5859 53.6406 33.5983 53.6282 33.6231 53.6158C33.6603 53.591 33.7223 53.5414 33.7719 53.5166C33.7719 53.5042 33.7719 53.4918 33.7967 53.4918C33.8216 53.4794 33.834 53.467 33.8588 53.4422C33.8588 53.4422 33.867 53.438 33.8836 53.4298C33.8836 53.4298 33.896 53.4298 33.896 53.4174C33.9084 53.4174 33.9208 53.4174 33.9456 53.405C33.9952 53.3802 34.0324 53.3553 34.082 53.3305C34.082 53.3305 34.0903 53.3264 34.1068 53.3181H34.1316C34.1316 53.3181 34.2928 53.2685 34.3549 53.2437H34.3797C34.3797 53.2437 34.5037 53.2313 34.5657 53.2313C34.6029 53.2313 34.6401 53.2313 34.6773 53.2313H34.7021C34.8138 53.2561 34.913 53.2561 35.0246 53.2685C35.0246 53.2685 35.037 53.2685 35.0494 53.2809C35.099 53.2933 35.2478 53.3181 35.2726 53.3305C35.3223 53.3553 35.3843 53.3677 35.4463 53.3926C35.4463 53.3926 35.4587 53.3926 35.4835 53.405C35.7067 53.5042 35.93 53.6406 36.1408 53.7894C36.7857 54.2855 37.2446 55.2281 37.257 56.0591C37.257 56.9273 36.947 57.6218 36.4261 58.1551L36.4137 58.1427Z" fill="var(--fill-0, #45BBC5)"/>
<path id="Vector_16" d="M35.1982 51.6688C35.0122 51.6564 34.8386 51.6688 34.6649 51.706C34.7021 51.5448 34.7269 51.3835 34.7393 51.2099C34.8882 51.3587 35.0494 51.5199 35.1982 51.6688Z" fill="var(--fill-0, white)"/>
<path id="Vector_17" d="M39.6259 59.1475C39.3903 59.7553 39.0058 60.2762 38.4849 60.6731C38.4601 60.6855 38.4353 60.7103 38.4105 60.7351C38.4105 60.7351 38.3981 60.7351 38.3733 60.7599C38.2989 60.7971 38.2368 60.8343 38.1748 60.8715C38.1748 60.8715 38.1624 60.8715 38.1624 60.8839H38.1376C38.1376 60.8839 38.1252 60.9087 38.1128 60.9087C38.1128 60.9087 38.1128 60.9211 38.1004 60.9211H37.902C37.902 60.9211 37.84 60.9087 37.8152 60.9087C37.7283 60.9087 37.6291 60.8715 37.5299 60.8591C37.3811 60.8219 37.2322 60.7723 37.0834 60.6979C36.9222 60.6234 36.761 60.5366 36.6245 60.4374C36.6369 60.4374 36.6493 60.4374 36.6617 60.4126C37.778 59.3088 39.167 58.2298 39.5515 56.6298C39.5639 56.605 39.5639 56.5802 39.5639 56.5554C39.9112 57.3616 39.9608 58.3166 39.6383 59.1475H39.6259Z" fill="var(--fill-0, white)"/>
<path id="Vector_18" d="M37.2446 56.0467C37.2446 56.9149 36.9346 57.6094 36.4137 58.1427C36.0044 58.552 35.5951 58.9489 35.1982 59.3582C35.0122 59.5442 34.8386 59.7178 34.6525 59.9039C34.6277 59.9163 34.6153 59.9411 34.5905 59.9535C34.5905 59.9659 34.5657 59.9783 34.5409 60.0031C34.5409 60.0031 34.5409 60.0155 34.5161 60.0279C34.4913 60.0651 34.4169 60.1147 34.3921 60.1271C34.3425 60.1643 34.2804 60.2015 34.2308 60.2263C34.2184 60.2388 34.206 60.2388 34.206 60.2512C34.1812 60.2636 34.1688 60.276 34.1688 60.276C34.1192 60.276 34.082 60.3008 34.0324 60.3256C34.02 60.3256 34.02 60.338 34.0076 60.3504C34.0076 60.3504 33.896 60.3752 33.8712 60.3876C33.8588 60.3876 33.7967 60.4124 33.7471 60.4124C33.6603 60.4248 33.5859 60.4372 33.4991 60.4496H33.4619C33.4619 60.4496 33.3875 60.4372 33.3751 60.4372H33.3131C33.251 60.4372 33.189 60.4372 33.127 60.4124H33.1022C33.1022 60.4124 33.065 60.4124 33.0278 60.4C32.5689 60.2636 32.1596 60.0775 31.7875 59.7054C31.1302 59.0481 30.7829 58.1551 30.8822 57.2622C30.9318 56.7412 31.0558 56.4064 31.3287 55.9723C31.3287 55.9599 31.3411 55.9475 31.3411 55.9475C31.5023 55.8359 31.6387 55.7118 31.7875 55.563C32.4449 54.9057 33.2014 54.2608 33.7719 53.5166C33.7719 53.5042 33.7719 53.4918 33.7968 53.4918C33.8216 53.4794 33.834 53.467 33.8588 53.4422C33.8588 53.4422 33.867 53.4381 33.8836 53.4298C33.8836 53.4298 33.896 53.4298 33.896 53.4174C33.9084 53.4174 33.9208 53.4174 33.9456 53.405C33.9952 53.3802 34.0324 53.3554 34.082 53.3306C34.082 53.3306 34.0903 53.3264 34.1068 53.3182H34.1316C34.1316 53.3182 34.2929 53.2686 34.3549 53.2438H34.3797C34.3797 53.2438 34.5037 53.2313 34.5657 53.2313C34.6029 53.2313 34.6401 53.2313 34.6773 53.2313H34.7021C34.8138 53.2562 34.913 53.2562 35.0246 53.2686C35.0246 53.2686 35.037 53.2686 35.0494 53.281C35.099 53.2934 35.2478 53.3182 35.2726 53.3306C35.3223 53.3554 35.3843 53.3678 35.4463 53.3926C35.4463 53.3926 35.4587 53.3926 35.4835 53.405C35.7067 53.5042 35.93 53.6406 36.1408 53.7895C36.7857 54.2856 37.2446 55.2281 37.257 56.0591L37.2446 56.0467Z" fill="var(--fill-0, white)"/>
</g>
<defs>
<clipPath id="clip0_0_80">
<rect width="72.17" height="62" fill="white"/>
</clipPath>
</defs>
</svg>
