<svg preserveAspectRatio="none" width="100%" height="100%" overflow="visible" style="display: block;" viewBox="0 0 104 104" fill="none" xmlns="http://www.w3.org/2000/svg">
<g id="Bildschirm&#194;&#173;foto 2026-05-17 um 09.41.32 1 [Vectorized]" clip-path="url(#clip0_0_23)">
<g id="Vector">
</g>
<path id="Vector_2" d="M50.4571 44.7271C51.5534 44.4312 53.4889 42.0246 54.3832 41.102C56.2229 39.2038 58.0677 37.2441 59.9222 35.3569C63.3457 32.272 66.9726 29.5305 70.8868 27.0994C73.2041 25.6601 75.2286 24.2087 77.7475 23.0554C81.4186 21.3744 84.4898 20.7419 88.5451 21.0356C88.6217 24.2476 88.3658 26.7843 87.2282 29.8481C86.5443 31.6896 85.5507 33.0395 84.6477 34.6954C81.9655 39.6139 78.8968 43.8173 74.9899 47.8413C73.5931 49.2799 72.2867 51.1294 70.8497 52.5669C68.9468 54.5624 66.7789 56.4211 64.8754 58.4313C69.0481 65.7578 62.3131 70.5782 57.3236 74.9414C56.8961 75.3153 55.7441 76.0822 55.1971 75.9883C53.9258 75.2559 53.0487 73.3004 52.1791 72.1343C50.9018 70.4215 48.9088 67.6587 47.0927 66.5772C46.3001 68.2467 45.7521 70.328 44.9754 71.844C43.8789 73.9845 40.1946 69.4563 39.518 68.7691L35.8378 65.0669C38.0836 63.973 40.8848 62.9987 43.2849 62.1025C42.1754 61.2245 41.2227 60.0789 40.1478 59.2429C37.8738 57.4745 35.0401 55.3781 32.5097 54.0277C32.8627 53.5313 33.354 52.7965 33.7633 52.3791C34.4218 51.533 35.539 50.3574 36.2804 49.548C38.2424 46.9662 41.7072 44.6453 44.8759 43.9701C46.6611 43.6136 48.7713 44.09 50.4571 44.7271Z" fill="var(--fill-0, #51C2CC)"/>
<path id="Vector_3" d="M44.8757 43.9695C46.6609 43.6131 48.7712 44.0894 50.4569 44.7265C50.0483 45.1027 49.9136 45.2721 49.3428 45.3053L49.5128 45.5459C49.214 45.9876 48.8353 46.3725 48.5038 46.7873C46.1056 49.7881 43.9376 52.9594 41.2535 55.7232C40.8689 56.1193 40.4687 56.6094 40.1127 57.039C38.7062 56.0981 35.6248 54.1553 34.7056 52.9625C34.6725 52.7691 34.6466 52.7149 34.7207 52.5307C34.2352 52.3037 34.2469 52.5278 33.7632 52.3785C34.4216 51.5324 35.5389 50.3568 36.2802 49.5475C38.2423 46.9656 41.7071 44.6447 44.8757 43.9695Z" fill="var(--fill-0, #FEFEFD)"/>
<path id="Vector_4" d="M36.2803 49.5477C38.2423 46.9659 41.7071 44.645 44.8758 43.9698C45.7003 44.0188 45.7311 44.1729 46.4272 44.5499C42.1023 44.4877 39.4414 46.9527 36.783 50.047L36.7282 49.8756C36.848 49.6938 36.8671 49.677 36.9198 49.4692C36.6057 49.4968 36.7232 49.4703 36.4194 49.6746L36.2803 49.5477Z" fill="var(--fill-0, #51C2CC)"/>
<path id="Vector_5" d="M44.8749 43.9695C46.6601 43.6131 48.7703 44.0894 50.4561 44.7265C50.0475 45.1027 49.9127 45.2721 49.3419 45.3053C48.141 44.9956 47.8212 44.7786 46.4263 44.5497C45.7301 44.1727 45.6994 44.0186 44.8749 43.9695Z" fill="var(--fill-0, #51C2CC)"/>
<path id="Vector_6" d="M36.2802 49.548L36.4193 49.675C36.7231 49.4706 36.6056 49.4971 36.9197 49.4695C36.867 49.6773 36.8479 49.6942 36.7282 49.876L36.7829 50.0473C36.4685 50.442 34.9731 52.336 34.7207 52.5313C34.2352 52.3042 34.2469 52.5284 33.7632 52.3791C34.4216 51.533 35.5389 50.3574 36.2802 49.548Z" fill="var(--fill-0, #51C2CC)"/>
<path id="Vector_7" d="M67.5274 31.5863C69.115 31.9599 76.5013 39.8884 77.952 41.4948C76.8527 43.7816 75.1217 45.2457 73.4731 47.0762C70.4248 50.4608 67.2411 53.7995 63.8141 56.8013C62.5818 57.8807 61.1526 58.7697 59.8949 59.8196C58.5364 60.9761 57.3674 62.4114 56.0061 63.5716C54.7126 64.6614 53.3274 65.5828 52.1015 66.7604C51.816 67.0119 51.5512 67.3111 51.292 67.5915C49.055 65.3651 47.0752 62.9967 44.8595 60.7645C44.0721 59.9711 43.2775 59.1972 42.5072 58.3856C44.1277 54.9809 47.282 51.845 49.6174 48.9491C53.5976 44.0137 57.6569 39.272 62.5449 35.1917C64.2952 33.7306 65.3949 32.5915 67.5274 31.5863Z" fill="var(--fill-0, #FEFEFD)"/>
<path id="Vector_8" d="M85.6837 22.4892C85.8115 22.4795 86.0427 22.4871 86.1796 22.4877C86.3813 22.7002 86.3735 22.7131 86.3829 23.0691C86.4117 24.1254 86.3056 25.1809 86.0672 26.2103C85.3641 29.2219 82.2781 37.0749 80.0902 39.314C79.8715 39.5377 79.6311 39.7072 79.3041 39.6998C77.9838 39.67 75.3282 36.4832 74.3542 35.4767C72.8199 33.8961 70.6516 31.1818 68.9752 30.0814C70.2297 29.3133 71.5739 28.0816 72.8457 27.2361C76.6807 24.6863 81.0593 22.7715 85.6837 22.4892Z" fill="var(--fill-0, #FEFEFD)"/>
<path id="Vector_9" d="M62.7703 59.9154C64.1539 60.6895 64.2305 62.7371 64.0321 64.1359C63.485 67.977 60.4603 70.9523 57.6034 73.3153C56.1326 74.5318 55.8184 73.8548 54.9221 72.6375C53.96 71.3451 53.171 69.9636 52.2299 68.6463C53.3114 67.9845 54.9038 66.5796 55.9376 65.7608C58.3523 63.8482 60.5312 62.0354 62.7703 59.9154Z" fill="var(--fill-0, #FEFEFD)"/>
<path id="Vector_10" d="M43.6041 63.9159C45.8456 63.6006 45.3978 65.2669 44.8735 66.6938C44.4863 67.7473 44.0952 68.736 43.6324 69.7604L42.2624 68.708C41.4933 68.0551 39.2514 65.9867 39.3221 64.9642C39.5541 64.7332 43.0457 63.9964 43.6041 63.9159Z" fill="var(--fill-0, #FEFEFD)"/>
<path id="Vector_11" d="M20.1649 89.4774C18.4715 80.9916 21.8577 74.2015 29.5624 70.3576C30.488 69.8958 32.4708 68.4749 33.4686 69.1357C33.5938 69.8847 32.5374 71 32.2753 72.3012C31.8404 74.4601 31.9979 76.3536 32.1165 78.5145C32.9939 78.6186 38.1035 78.6026 38.8245 78.4205C38.7562 77.4962 39.0383 77.4197 39.8624 77.1327C40.4377 76.2813 41.3915 75.6271 41.7185 77.0849C41.5442 78.0567 41.0543 78.8371 40.5887 79.691C38.9762 82.6491 35.7165 86.1306 32.6586 87.5485C31.9727 87.8489 29.4389 89.07 28.9544 89.179C28.0908 89.4245 21.3323 89.5116 20.1649 89.4774Z" fill="var(--fill-0, #FEFEFD)"/>
<path id="Vector_12" d="M20.1649 89.4774C18.4715 80.9916 21.8577 74.2015 29.5624 70.3576C30.488 69.8958 32.4708 68.4749 33.4686 69.1357C33.5938 69.8847 32.5374 71 32.2753 72.3012C31.8404 74.4601 31.9979 76.3536 32.1165 78.5145C32.9939 78.6186 38.1035 78.6026 38.8245 78.4205C38.7562 77.4962 39.0383 77.4197 39.8624 77.1327C40.4377 76.2813 41.3915 75.6271 41.7185 77.0849C41.5442 78.0567 41.0543 78.8371 40.5887 79.691C38.9762 82.6491 35.7165 86.1306 32.6586 87.5485C32.5309 87.3058 32.3971 87.0662 32.2577 86.83C35.9067 83.7268 36.7064 83.5833 38.7288 79.2367C35.653 79.1487 33.2913 79.334 30.3464 79.3299C29.8188 76.4061 30.0381 73.7811 30.5212 70.8863C27.3255 72.0441 24.7929 74.8676 23.2491 77.8581C21.6683 80.9202 22.043 85.0548 22.4221 88.4717C24.4075 88.6702 25.8576 88.5606 27.7242 88.6532C28.3452 88.6824 28.6283 88.5844 28.9544 89.179C28.0908 89.4245 21.3323 89.5116 20.1649 89.4774Z" fill="var(--fill-0, #51C2CC)"/>
<path id="Vector_13" d="M39.8617 77.1321C40.437 76.2807 41.3908 75.6265 41.7178 77.0843C41.1157 77.0694 40.4669 77.1083 39.8617 77.1321Z" fill="var(--fill-0, #51C2CC)"/>
<path id="Vector_14" d="M32.2568 86.8295C32.3962 87.0657 32.53 87.3053 32.6578 87.5481C31.9718 87.8485 29.438 89.0696 28.9536 89.1785C28.6275 88.584 28.3443 88.6819 27.7233 88.6528C29.0591 88.5036 31.2474 87.6513 32.2568 86.8295Z" fill="var(--fill-0, #51C2CC)"/>
</g>
<defs>
<clipPath id="clip0_0_23">
<rect width="104" height="104" fill="white"/>
</clipPath>
</defs>
</svg>
