<svg preserveAspectRatio="none" width="100%" height="100%" overflow="visible" style="display: block;" viewBox="0 0 46.7703 72.1297" fill="none" xmlns="http://www.w3.org/2000/svg">
<g id="Ebene_1" clip-path="url(#clip0_0_38)">
<path id="Vector" d="M33.7253 40.2371H11.9326C11.8126 40.2371 11.6599 40.248 11.4854 40.2807C11.1145 40.3462 10.6783 40.4989 10.4492 40.7606C10.351 40.8806 10.2965 40.9897 10.2965 41.1424V71.4428C10.2965 72.3808 11.769 72.1844 12.2707 71.7918C15.5647 69.1631 18.8478 66.5454 22.1418 63.9167C25.5448 66.5999 28.9479 69.2831 32.351 71.9663H32.3619C32.4819 72.0754 32.6455 72.119 32.82 72.119C32.8636 72.1299 32.9072 72.1299 32.9509 72.1299C33.638 72.1517 34.4888 71.77 34.4888 71.2137V40.9133C34.4888 40.4879 34.1289 40.2371 33.7253 40.2371ZM32.0783 68.9995C29.2424 66.7635 26.3956 64.5166 23.5488 62.2697C23.4507 62.1934 23.3634 62.117 23.2652 62.0407C22.8508 61.7135 21.9345 61.9316 21.5637 62.2261C21.411 62.3461 21.2692 62.4661 21.1165 62.5861C18.3133 64.822 15.5102 67.058 12.707 69.294V41.8077H32.0783V68.9995Z" fill="var(--fill-0, #45BBC5)"/>
<path id="Vector_2" d="M32.0783 43.5856V68.9995C29.2424 66.7635 26.3956 64.5166 23.5488 62.2697V45.3635C25.0759 45.3307 26.6247 45.1453 28.1408 44.8072C29.5042 44.5018 30.8131 44.0982 32.0783 43.5856Z" fill="var(--fill-0, white)"/>
<path id="Vector_3" d="M23.5488 40.9459V62.6077C23.5488 63.1094 23.1016 63.4476 22.5889 63.5566C22.2508 63.6439 21.8909 63.633 21.6182 63.513C21.3237 63.3821 21.1165 63.1422 21.1165 62.7604V41.0986C21.1165 40.9132 21.1819 40.7496 21.291 40.6078C21.4109 40.4441 21.5964 40.3242 21.8036 40.2369C21.8909 40.1933 21.9781 40.1715 22.0654 40.1497C22.4362 40.0515 22.8398 40.0733 23.1343 40.2369C23.1452 40.2478 23.1561 40.2478 23.1561 40.2478C23.3415 40.3569 23.4724 40.5096 23.527 40.7386C23.5379 40.8041 23.5488 40.8695 23.5488 40.9459Z" fill="var(--fill-0, #45BBC5)"/>
<path id="Vector_4" d="M45.5705 22.7089C45.5705 34.9796 35.6231 44.9161 23.3634 44.9161C11.1036 44.9161 1.15618 34.9796 1.15618 22.7089C1.15618 10.4382 11.1036 0.501736 23.3634 0.501736C35.6231 0.501736 45.5705 10.4492 45.5705 22.7089Z" fill="var(--fill-0, white)"/>
<path id="Vector_5" d="M21.1165 45.3091V62.5862C18.3133 64.8222 15.5102 67.0581 12.707 69.2941V43.1058C15.3247 44.3601 18.1824 45.1127 21.1165 45.3091Z" fill="var(--fill-0, white)"/>
<path id="Vector_6" d="M30.9548 1.0251C21.9781 -1.75625 11.4744 1.23234 5.36636 8.39841C-0.992572 15.859 -1.83243 26.908 3.55575 35.1539C5.34455 37.8916 7.65688 40.1167 10.2964 41.7746C11.0709 42.2764 11.878 42.7236 12.7069 43.1053C15.3247 44.3596 18.1824 45.1122 21.1164 45.3086C21.9236 45.3849 22.7307 45.3958 23.5488 45.3631C25.0758 45.3304 26.6246 45.145 28.1407 44.8068C29.5041 44.5014 30.813 44.0979 32.0782 43.5852C32.9072 43.2471 33.7143 42.8653 34.4887 42.4291C41.7748 38.5024 46.7049 31.0419 46.7703 22.3924C46.694 12.6522 40.2805 3.91552 30.9548 1.0251ZM34.4887 41.3383C33.7252 41.8292 32.9181 42.2764 32.0782 42.669C31.5329 42.9199 30.9766 43.138 30.4094 43.3453C28.1734 44.1415 25.8611 44.4796 23.5488 44.4142C22.7307 44.3924 21.9236 44.3269 21.1164 44.196C18.6078 43.847 16.1755 43.018 13.9395 41.8073C13.525 41.5892 13.1105 41.3492 12.7069 41.0875C12.6524 41.0656 12.6088 41.0329 12.5542 41.0002C12.1943 40.7712 11.8344 40.5312 11.4853 40.2803C9.7838 39.0587 8.23497 37.5862 6.94791 35.9174C1.5161 28.8822 0.883476 18.9566 5.36636 11.2888C9.98013 3.4247 19.0441 -0.61099 27.9335 1.66863C37.6082 4.15548 44.2944 13.1322 44.3816 23.0359C44.3162 30.3329 40.575 37.4226 34.4887 41.3383Z" fill="var(--fill-0, #45BBC5)"/>
<path id="Vector_7" d="M41.3931 22.7088C41.3931 32.6672 33.3217 40.7385 23.3634 40.7385C13.405 40.7385 5.33367 32.6672 5.33367 22.7088C5.33367 12.7505 13.405 4.69005 23.3634 4.69005C33.3217 4.69005 41.3931 12.7614 41.3931 22.7198V22.7088Z" fill="var(--fill-0, white)"/>
<path id="Vector_8" d="M40.1932 23.0363C40.1169 30.0714 35.8631 36.9321 29.1333 39.408C22.2835 41.9167 14.3212 38.8409 10.0783 33.1255C5.87901 27.4755 5.38818 19.6659 8.88941 13.5578C12.5652 7.13347 19.7749 3.83948 26.9955 5.74825C34.7942 7.80972 40.1169 15.074 40.1932 23.0472C40.1932 23.4071 42.5928 23.069 42.5928 22.4036C42.5056 14.4522 37.281 7.39524 29.6677 5.03928C22.3053 2.77057 13.5904 5.27923 8.5731 11.1146C3.37034 17.1681 2.68318 26.1885 7.0679 32.8964C11.4417 39.5717 19.5349 42.4185 27.2136 40.706C35.9285 38.7645 42.4947 31.4676 42.5819 22.3927C42.5819 22.0437 40.1932 22.36 40.1823 23.0363H40.1932Z" fill="var(--fill-0, #45BBC5)"/>
<path id="Vector_9" d="M21.8691 11.1257C22.5126 12.3583 23.1562 13.5908 23.7997 14.8233C24.2142 15.6086 24.6177 16.3939 25.0322 17.1684C25.2067 17.4956 25.3922 18.0955 25.6976 18.3354C26.0248 18.5972 26.6683 18.5972 27.0501 18.6626C27.9226 18.8154 28.7952 18.9571 29.6569 19.1098C31.0312 19.3389 32.3946 19.5789 33.7689 19.8079C33.6817 19.5025 33.6053 19.1862 33.5181 18.8808C32.5473 19.8734 31.5766 20.8659 30.6058 21.8585C29.9841 22.4911 29.3733 23.1237 28.7516 23.7563C28.4789 24.029 27.9554 24.4108 27.8136 24.7925C27.6827 25.1634 27.879 25.7524 27.9335 26.1232C28.0644 26.9958 28.1953 27.8684 28.3153 28.741C28.5225 30.1153 28.7189 31.4896 28.9261 32.8639L31.0748 31.9368C29.8314 31.3151 28.588 30.7043 27.3336 30.0826C26.4938 29.6681 25.6539 29.2536 24.8141 28.8391C24.3451 28.6101 23.8979 28.3156 23.3525 28.3156C22.7635 28.3156 22.2509 28.6428 21.7491 28.8937C20.942 29.2863 20.1349 29.6899 19.3386 30.0935C18.0625 30.7261 16.7754 31.3587 15.4993 31.9913C16.0664 32.1331 16.6227 32.264 17.1899 32.4058C17.3862 31.0315 17.5935 29.6572 17.8007 28.2829C17.9316 27.4103 18.0625 26.5377 18.1825 25.6651C18.2261 25.3379 18.4333 24.7598 18.3352 24.4217C18.2261 24.0726 17.7462 23.7454 17.5062 23.4946C16.8845 22.8619 16.2737 22.2293 15.652 21.5967C14.6812 20.6041 13.7105 19.6116 12.7397 18.619C12.3253 19.0226 11.8999 19.4262 11.4854 19.8188C12.8597 19.5898 14.2231 19.3498 15.5974 19.1208C16.5246 18.9681 17.4408 18.8044 18.3679 18.6517C18.9023 18.5645 19.5677 18.5209 20.0367 18.2591C20.5384 17.9755 20.702 17.5174 20.9638 17.0266C21.3783 16.2303 21.7928 15.4341 22.2181 14.6379L24.2033 10.8421C24.7595 9.78414 22.349 9.98047 21.9564 10.7331C20.7348 13.0563 19.5131 15.3905 18.2915 17.7137L19.5677 17.0484L11.7908 18.3682C11.4418 18.4227 9.92566 18.9462 10.5365 19.568C11.4527 20.506 12.3689 21.444 13.296 22.3929C13.9286 23.0365 14.5612 23.68 15.1939 24.3344C15.3902 24.5308 15.5756 24.7598 15.7829 24.9343C15.8701 25.0107 16.1428 25.4033 16.001 25.0434C15.881 24.7489 15.9465 25.0652 15.9028 25.2506C15.8374 25.5233 15.8156 25.8069 15.7829 26.0796L15.3902 28.7628C15.1939 30.0607 15.0084 31.3696 14.8121 32.6676C14.6921 33.4856 16.1101 33.2784 16.5027 33.082C18.8587 31.915 21.2147 30.7479 23.5706 29.5808C23.0907 29.6026 22.6108 29.6244 22.1309 29.6463C24.4869 30.8133 26.8428 31.9804 29.1988 33.1475C29.7987 33.442 31.4784 33.1366 31.3475 32.2204C30.9658 29.6135 30.584 27.0176 30.2023 24.4217C30.1259 24.6071 30.0496 24.7925 29.9732 24.978C31.8056 23.1019 33.6489 21.2149 35.4814 19.3389C35.8086 19.0008 35.7759 18.499 35.2305 18.4118L27.4536 17.092C27.6063 17.212 27.7699 17.3429 27.9335 17.4629C26.7119 15.1396 25.4903 12.8055 24.2796 10.4822C23.8215 9.60962 21.4874 10.3731 21.88 11.1257H21.8691Z" fill="var(--fill-0, #45BBC5)"/>
</g>
<defs>
<clipPath id="clip0_0_38">
<rect width="46.7703" height="72.1297" fill="white"/>
</clipPath>
</defs>
</svg>
