<svg preserveAspectRatio="none" width="100%" height="100%" overflow="visible" style="display: block;" viewBox="0 0 83.0264 63.0395" fill="none" xmlns="http://www.w3.org/2000/svg">
<g id="Ebene_1" clip-path="url(#clip0_0_123)">
<path id="Vector" d="M57.0272 10.5254C56.9628 14.9097 54.9318 19.1327 52.3045 22.5498C49.2259 26.515 45.1318 29.5453 40.7798 31.9953C31.8179 28.2719 24.4679 19.713 24.355 9.76785C24.4517 6.1573 26.5955 2.56288 30.3027 1.75695C34.2195 0.90267 37.9268 3.46551 39.3936 6.99547C39.7482 7.84975 41.6018 7.44678 41.892 6.72145C43.8262 2.04708 49.1292 0.0322703 53.4167 3.11091C55.8183 4.83559 57.0595 7.93034 57.0272 10.5254Z" fill="var(--fill-0, white)"/>
<path id="Vector_2" d="M59.4934 8.12358C58.8003 3.73935 54.9963 0.483411 50.6443 0.0482111C46.8565 -0.322515 43.0847 1.30545 40.8281 4.25514C38.491 0.950848 34.3969 -0.612648 30.2705 0.241633C25.5317 1.22486 21.8889 5.15778 21.7599 10.0578V10.09C21.8567 17.3273 25.2577 23.6618 30.7541 28.2717C32.7044 29.8997 34.8159 31.3181 37.0564 32.4948C37.959 32.9622 39.2002 33.7842 40.264 33.7842C41.2633 33.7842 42.2466 32.9944 43.0847 32.5109C44.2775 31.8339 45.438 31.0925 46.5663 30.3026C48.3877 29.0293 50.1285 27.627 51.7081 26.0635C54.1259 23.7102 56.2213 20.97 57.6559 17.8914C59.0582 14.9095 60.0092 11.4601 59.4934 8.12358ZM52.3045 22.5496C49.2259 26.5148 45.1318 29.5451 40.7798 31.9951C31.8179 28.2717 24.4679 19.7128 24.355 9.76767C24.4517 6.15713 26.5955 2.5627 30.3028 1.75677C34.2196 0.902492 37.9268 3.46534 39.3936 6.99529C39.7482 7.84957 41.6018 7.44661 41.892 6.72127C43.8262 2.04691 49.1292 0.0320925 53.4167 3.11073C55.8184 4.83541 57.0595 7.93016 57.0272 10.5252C56.9628 14.9095 54.9318 19.1325 52.3045 22.5496Z" fill="var(--fill-0, #45BBC5)"/>
<path id="Vector_3" d="M79.2224 7.02818V39.507C79.2224 42.1826 77.9007 44.6971 75.6764 46.2123L53.1427 61.5732C50.8377 63.1528 47.6301 62.089 46.7759 59.4294C45.567 55.7222 45.0995 50.661 49.2259 47.0182C56.5437 40.5708 69.2773 30.3678 69.2773 30.3678V15.9739C69.2773 11.5897 71.3405 7.46338 74.8543 4.85218C76.6596 3.51434 79.2063 4.7877 79.2063 7.04429" fill="var(--fill-0, white)"/>
<path id="Vector_4" d="M77.9329 7.38229V30.8347C77.9329 33.8166 78.0457 36.8308 77.9329 39.8127C77.7556 44.5032 74.0967 46.373 70.7279 48.6779C66.6499 51.4664 62.572 54.2388 58.494 57.0273C56.8821 58.1234 55.2864 59.2194 53.6745 60.3155C52.2239 61.2987 50.9022 62.2336 49.1936 60.7829C46.7758 58.7359 46.8403 53.4006 47.8396 50.7088C49.1614 47.195 53.1587 44.7128 55.9472 42.3756C60.4927 38.5555 65.1348 34.8805 69.6963 31.0926C70.6796 30.2706 70.5667 29.7709 70.5667 28.4975V20.3093C70.5667 18.3268 70.4378 16.2636 70.6634 14.2971C70.9213 11.9277 71.8079 9.655 73.2424 7.73689C73.726 7.09215 74.9832 5.27076 75.902 5.09346C77.1592 4.85168 77.8523 6.46353 77.9329 7.41452C77.9974 8.25269 80.6086 7.68854 80.5119 6.72143C80.2056 3.22371 76.1599 3.04641 73.8388 4.67438C70.47 7.0438 68.3101 11.1863 68.0361 15.232C67.7299 19.7613 68.0039 24.3873 68.0039 28.9166C68.0039 29.4485 67.8749 30.1577 68.0039 30.6735C67.8266 29.9966 68.5519 30.2061 68.0039 30.3834C67.7138 30.4801 67.343 30.9153 67.1174 31.0926C64.7157 33.0268 62.3302 34.9772 59.9446 36.9275C56.7693 39.5387 53.6101 42.1499 50.4992 44.8256C47.4689 47.4207 44.8577 49.919 44.6482 54.1582C44.5031 57.2207 45.0834 61.5405 48.3877 62.7171C50.4508 63.4586 52.5785 62.8461 54.3354 61.6855C58.1071 59.1872 61.7983 56.5921 65.5378 54.0454C69.1161 51.6115 72.7266 49.1937 76.2727 46.7115C78.8355 44.9223 80.399 42.4239 80.4957 39.2486C80.528 38.2815 80.4957 37.2982 80.4957 36.3311V6.68919C80.4957 5.89938 77.9168 6.38294 77.9168 7.38229" fill="var(--fill-0, #45BBC5)"/>
<path id="Vector_5" d="M57.3496 40.1837L68.0845 31.4797C71.3565 28.8363 75.6763 27.8853 79.7543 28.9169C81.8336 29.4488 82.4299 32.1245 80.7536 33.4784L63.4423 47.6627" fill="var(--fill-0, white)"/>
<path id="Vector_6" d="M58.5101 40.0546L65.57 34.3325C68.7937 31.7213 71.7917 28.7717 76.2888 29.0134C77.675 29.094 79.4641 29.2391 80.1572 30.6414C80.673 31.6891 80.4151 32.8335 79.577 33.6072C79.0128 34.1391 78.3681 34.6066 77.7717 35.0901C74.8381 37.4918 71.9046 39.8934 68.971 42.2951C66.7466 44.1165 64.5062 45.954 62.2818 47.7754C61.8305 48.1461 62.6848 48.1622 62.8782 48.1461C63.4423 48.0977 64.1516 47.9204 64.619 47.5497C69.8736 43.2461 75.1283 38.9424 80.3829 34.6388C81.0599 34.0908 81.898 33.5427 82.43 32.8496C83.1875 31.8825 83.2036 30.5125 82.4783 29.5131C81.6724 28.417 80.2056 28.2397 78.9484 28.0947C75.4829 27.7078 71.824 28.5299 68.8098 30.2868C67.4881 31.0605 66.3114 32.0759 65.1348 33.0431C62.1529 35.4608 59.1709 37.8786 56.1729 40.2964C55.7216 40.6671 56.5759 40.6832 56.7693 40.6671C57.3334 40.6188 58.0426 40.4415 58.494 40.0707" fill="var(--fill-0, #45BBC5)"/>
<path id="Vector_7" d="M3.82009 7.02818V39.507C3.82009 42.1826 5.14181 44.6971 7.36616 46.2123L29.8998 61.5732C32.2048 63.1528 35.4124 62.089 36.2667 59.4294C37.4755 55.7222 37.943 50.661 33.8166 47.0182C26.4988 40.5708 13.7652 30.3678 13.7652 30.3678V15.9739C13.7652 11.5897 11.702 7.46338 8.1882 4.85218C6.39905 3.51434 3.83621 4.7877 3.83621 7.04429" fill="var(--fill-0, white)"/>
<path id="Vector_8" d="M2.53059 7.38298V33.9302C2.53059 37.847 1.88585 42.3601 4.77106 45.471C5.73817 46.5187 7.04377 47.2763 8.2043 48.0661C10.1869 49.42 12.1695 50.774 14.152 52.1118L27.0146 60.8803C28.0945 61.6218 29.1422 62.476 30.4478 62.7501C33.3814 63.3948 36.6212 61.8313 37.6206 58.9783C38.8133 55.5773 38.7972 51.4671 36.7179 48.4368C34.6064 45.3582 30.883 42.9404 28.0462 40.571C25.0804 38.0887 22.0985 35.6387 19.1004 33.2048C18.1172 32.3989 17.1178 31.593 16.1185 30.7871C15.8928 30.6098 15.0224 29.8522 15.0708 29.965C14.8451 29.417 15.0708 28.3048 15.0708 27.7245V23.1791C15.0708 20.7291 15.0869 18.263 15.0708 15.813C15.0385 11.5899 13.2655 7.38298 9.89674 4.72343C7.5112 2.83756 2.86907 3.70796 2.56282 7.18956C2.49835 7.97937 5.06119 7.46357 5.12567 6.77048C5.2385 5.51323 5.70593 4.57836 6.97929 5.25534C7.64015 5.60994 8.33325 6.36751 8.8168 6.89943C10.3158 8.51128 11.3958 10.4777 11.976 12.5893C12.5241 14.588 12.4757 16.6028 12.4757 18.6498V29.0946C12.4757 29.4815 12.3145 30.2713 12.4757 30.642C12.8464 31.5285 14.7001 32.4956 15.4093 33.0759C17.9399 35.1229 20.4705 37.1861 22.985 39.2654C25.8379 41.6187 28.6909 44.0042 31.4794 46.4381C34.6064 49.146 36.2505 52.2408 35.7025 56.4477C35.3479 59.1556 34.1873 62.9918 30.8025 60.832C29.5774 60.0583 28.4008 59.1879 27.208 58.3819C23.0494 55.5451 18.8748 52.7082 14.7162 49.8553C12.2017 48.1467 8.72009 46.4542 6.80199 44.0203C4.52928 41.1351 5.12567 36.9282 5.12567 33.4788V6.68988C5.12567 6.15797 2.5467 6.56094 2.5467 7.38298" fill="var(--fill-0, #45BBC5)"/>
<path id="Vector_9" d="M25.6928 40.1837L14.9579 31.4797C11.6859 28.8363 7.36609 27.8853 3.28811 28.9169C1.20882 29.4488 0.612435 32.1245 2.28876 33.4784L19.6 47.6627" fill="var(--fill-0, white)"/>
<path id="Vector_10" d="M26.6923 39.4742C24.065 37.3466 21.4215 35.2028 18.7942 33.0752C17.8593 32.3015 16.9083 31.5278 15.9573 30.7864C13.185 28.5943 9.7356 27.5304 6.20565 27.6594C3.62669 27.7561 -0.338464 28.6104 2.50269e-05 32.0114C0.128973 33.3653 1.1122 34.1068 2.07931 34.8805C5.04512 37.3144 8.02704 39.7483 10.9928 42.1822C13.5235 44.2453 16.0379 46.3246 18.5685 48.3878C19.3745 49.0486 21.6794 47.872 20.5834 46.9693C15.7156 42.9881 10.8478 38.9907 5.97999 35.0094C5.14183 34.3324 4.27143 33.6716 3.4655 32.9462C3.07866 32.6078 2.75629 32.2209 2.64346 31.689C2.32109 30.19 3.36879 29.6903 4.62604 29.513C7.9948 29.0456 11.2991 30.1094 13.9425 32.2048C14.7807 32.8818 15.6189 33.5588 16.457 34.2357L24.6775 40.8927C25.4834 41.5535 27.7883 40.3769 26.6923 39.4742Z" fill="var(--fill-0, #45BBC5)"/>
</g>
<defs>
<clipPath id="clip0_0_123">
<rect width="83.0264" height="63.0395" fill="white"/>
</clipPath>
</defs>
</svg>
